<svg xmlns="http://www.w3.org/2000/svg" viewBox="0 0 2160 2160"><defs><style>.cls-1{isolation:isolate;}.cls-2{fill:#ffe9f0;}.cls-3{fill:#ff3e75;}.cls-4{fill:#db1f59;}.cls-5{fill:#910c2f;}.cls-6{fill:#bf0c3b;}.cls-7{fill:#ffa4c9;}.cls-8{fill:#ff5f9c;}.cls-9{fill:#fff;}.cls-10{fill:#f1b69a;mix-blend-mode:multiply;opacity:0.5;}.cls-11{opacity:0.4;}.cls-12{fill:#a0023b;}.cls-13{fill:#770036;}</style></defs><g class="cls-1"><g id="Layer_1" data-name="Layer 1"><path class="cls-2" d="M689.86,878.3,618.17,950l-97.93-26.24L494,825.82l71.69-71.69,97.93,26.24Zm-74.94,59.54,62.79-62.79-23-85.78-85.78-23-62.8,62.8,23,85.78Z"/><polygon class="cls-3" points="572.54 779.7 519.57 832.67 538.96 905.04 611.32 924.43 664.3 871.46 644.91 799.09 572.54 779.7"/><path class="cls-2" d="M395.23,660.88l-87.8-50.69V508.8l87.8-50.69L483,508.8V610.19Zm-76.9-57,76.9,44.4,76.91-44.4V515.09l-76.91-44.4-76.9,44.4Z"/><polygon class="cls-3" points="330.35 522.04 330.35 596.96 395.23 634.42 460.12 596.96 460.12 522.04 395.23 484.58 330.35 522.04"/><path class="cls-2" d="M1282.05,665.6l-71.69,71.69-97.93-26.24-26.24-97.93,71.69-71.69,97.93,26.24Zm-75,59.54,62.8-62.8-23-85.78-85.78-23-62.79,62.79,23,85.78Z"/><polygon class="cls-3" points="1164.73 566.99 1111.75 619.97 1131.14 692.33 1203.51 711.73 1256.48 658.75 1237.1 586.38 1164.73 566.99"/><path class="cls-2" d="M1051,1032l-59.89-59.89L1013,890.33l81.81-21.92,59.89,59.88-21.92,81.81Zm-47.74-63.15,51,51,69.66-18.67,18.66-69.66-51-51-69.66,18.66Z"/><polygon class="cls-3" points="1013.23 966.2 1056.91 1009.88 1116.58 993.89 1132.57 934.23 1088.89 890.55 1029.22 906.54 1013.23 966.2"/><path class="cls-2" d="M1573.66,950.4,1502,1022.09,1404,995.85l-26.24-97.93,71.69-71.69,97.93,26.24Zm-75,59.54,62.8-62.79-23-85.79-85.78-23-62.8,62.8,23,85.78Z"/><polygon class="cls-3" points="1456.33 851.79 1403.36 904.77 1422.75 977.14 1495.12 996.53 1548.09 943.55 1528.7 871.18 1456.33 851.79"/><path class="cls-2" d="M1839,916.1l-71.69,71.69-97.93-26.24-26.24-97.93,71.69-71.69,97.93,26.24ZM1764,975.64l62.79-62.79-23-85.78-85.78-23-62.8,62.8,23,85.78Z"/><polygon class="cls-3" points="1721.64 817.5 1668.66 870.47 1688.06 942.84 1760.42 962.23 1813.4 909.25 1794.01 836.89 1721.64 817.5"/><path class="cls-2" d="M1767.13,1146.55l-50.31,8.24-.47,1.25-17.54,46.42,32.28,39.45,50.29-8.23,18-47.68Zm10.28,82.26-44.1,7.22L1705,1201.45l15.79-41.79,44.1-7.21L1793.2,1187Z"/><polygon class="cls-3" points="1762.43 1158.99 1725.25 1165.08 1711.92 1200.32 1735.79 1229.48 1772.97 1223.4 1786.29 1188.15 1762.43 1158.99"/><path class="cls-2" d="M1595.26,1295.12l-73.34,13.81-24.71,70.42,48.63,56.61,68.25-12.86,5.09-1,2.43-6.93,22.28-63.49ZM1611,1412.61l-61,11.48L1509.56,1377l20.55-58.55,61-11.49,40.42,47.07Z"/><polygon class="cls-3" points="1588.37 1314.73 1535.46 1324.7 1517.64 1375.5 1552.72 1416.34 1605.63 1406.38 1623.46 1355.57 1588.37 1314.73"/><path class="cls-2" d="M2081.83,1126.88,2014.76,1194l-91.61-24.55-24.55-91.61,67.06-67.07,91.62,24.55Zm-70.33,54.92,58.17-58.17-21.29-79.47-79.46-21.29L1910.75,1081,1932,1160.5Z"/><polygon class="cls-3" points="1972.16 1034.95 1922.82 1084.28 1940.88 1151.67 2008.27 1169.72 2057.6 1120.39 2039.55 1053 1972.16 1034.95"/><path class="cls-2" d="M701.7,1010.49l-42.59-51.71L682.6,896l66.08-11,42.59,51.71-23.49,62.75Zm-33.91-53.16,37,44.92,57.39-9.58,20.4-54.5-37-44.91-57.39,9.58Z"/><polygon class="cls-3" points="742.48 901.57 693.84 909.69 676.55 955.87 707.9 993.93 756.54 985.82 773.83 939.64 742.48 901.57"/><path class="cls-2" d="M678,645.4l-71.69-71.69,26.24-97.93,97.94-26.24,71.69,71.69-26.24,97.93Zm-59.53-74.95,62.79,62.8,85.78-23,23-85.79-62.8-62.79-85.78,23Z"/><polygon class="cls-3" points="776.61 528.08 723.64 475.1 651.27 494.49 631.88 566.86 684.85 619.84 757.22 600.45 776.61 528.08"/><path class="cls-4" d="M1748,1715.79l-10.89-2.25L1494,1663.39c3.87-28.12-.55-56.31-12.24-83.49a198.64,198.64,0,0,0-10.28-20.46c-13.5-23.45-32.45-45.9-56.12-66.58q-5.3-4.63-10.9-9.13c-36.56-29.4-83-54.8-137-73.9q-5.4-1.9-10.9-3.74A635.19,635.19,0,0,0,1185,1387c-97.25-20.07-194.88-17.77-278,2.32q-5.49,1.31-10.89,2.76c-80.37,21.23-146.07,59.42-183,110.23l-313-64.55-10.89-2.26-37.31-7.69-30.68,73.73,30.68,6.32,37.31,7.69,10.89,2.26,282.38,58.24c-5.49,39.89,5.72,79.94,30.66,117,18.51,27.52,44.59,53.4,77,76.36q9,6.35,18.6,12.4v0c1.87,1.16,3.74,2.33,5.64,3.47q12,7.32,25,14.13,20.6,10.8,43.37,20.19,11.85,4.85,24.24,9.29a622.31,622.31,0,0,0,84.41,23.51q3.16.66,6.34,1.27c1.85.36,3.71.72,5.56,1.06l.79.15q8.46,1.57,16.93,2.92c1.7.28,3.39.54,5.09.79l1.43.2a671.23,671.23,0,0,0,102,7.53q12.2,0,24.23-.51a594.2,594.2,0,0,0,118.73-16.5q3.53-.87,7-1.79a471,471,0,0,0,57.48-19l1.59-.65.51-.21h0l3.41-1.42.66-.27,3.28-1.42c1.22-.53,2.41-1,3.62-1.6s2.4-1.08,3.59-1.62l3.56-1.66q5.31-2.49,10.46-5.12a330.21,330.21,0,0,0,36.74-21.7q5.6-3.81,10.9-7.82c19-14.35,35.22-30.4,48-48l30.66,6.33,243.13,50.15,10.89,2.24,76.58,15.8,30.66-73.73Zm-726.22,63.72-1.72-.37-1.09-.23c-.4-.07-.78-.16-1.15-.24l-.77-.16-1-.22c-1.23-.27-2.46-.54-3.69-.83q-4.53-1-9-2.15c-2-.5-4-1-6-1.54l-.2,0c-.43-.11-.64-.18-.64-.18h0c-70-18.72-125.15-52.17-157.09-91.67-11.45-14.17-19.92-29.14-25-44.48a115.16,115.16,0,0,1-3.32-12.15,105.49,105.49,0,0,1-2.32-20.5c0-.67,0-1.31,0-2,0-.42,0-.64,0-.64l30.66,6.32,43.37,9,20.07,4.14,100.48,20.72h0l333.52,68.78,0,0,.13,0-.16.17c-14.81,16.56-34.31,30.86-57.32,42.51-.2.11-.41.21-.62.31-67.54,36-145.57,38.52-202.47,33.34q-15.64-1.32-31.46-3.75c-1-.15-2-.29-2.93-.45l-.28,0-.64-.11-2.81-.45c-1.67-.29-3.35-.57-5-.87-1.9-.34-3.82-.7-5.73-1.06S1023.73,1779.92,1021.79,1779.51Zm257.76-160.34-12.11-2.49-10.9-2.25-1.23-.25L839.43,1528.4c14.66-16.45,34-30.67,56.72-42.3,3.55-1.82,7.17-3.57,10.89-5.26a326.53,326.53,0,0,1,67.27-21.65q11.88-2.49,24.24-4.31a437,437,0,0,1,77.56-4.23q12,.39,24.23,1.44a463,463,0,0,1,54.34,7.89c38.1,7.85,72.44,20,101.86,35.08q5.58,2.85,10.9,5.86c20.58,11.59,38.47,24.72,53.19,38.9a194.09,194.09,0,0,1,14,14.91c21.65,25.67,33.44,54,33.06,82.63Z"/><path class="cls-5" d="M1367.71,1637.36v177.23q-5.14,2.63-10.46,5.12l-3.56,1.66c-1.19.54-2.39,1.09-3.59,1.62s-2.4,1.07-3.62,1.6l-3.28,1.42-.66.27-3.41,1.42h0l-.51.21-1.59.65V1711.09l-.13,0,0,0-333.52-68.78-100.53-20.73-20-4.13-43.37-9V1528.4l415.88,85.78,1.23.25,10.9,2.25,12.11,2.49,88.14,18.19Z"/><path class="cls-5" d="M713.14,1502.34v190.74c-24.95-37.06-36.16-77.11-30.67-117L400.1,1517.84l-10.9-2.26-37.31-7.69v-80.05l37.31,7.69,10.9,2.26Z"/><path class="cls-6" d="M1336.9,1711.07l0,0c.07-.07.13-.1.14-.12A.79.79,0,0,1,1336.9,1711.07Z"/><path class="cls-6" d="M1339.13,1827.7h0l-.51.21-1.59.63a477.14,477.14,0,0,1-57.48,18.75c-2.73.72-5.48,1.4-8.24,2.07a608.9,608.9,0,0,1-117.51,16.2q-12,.5-24.23.56a668.92,668.92,0,0,1-102-7.28l-1.43-.2c-1.7-.25-3.39-.51-5.09-.79q-8.46-1.33-16.93-2.92l-.79-.15c-1.85-.34-3.71-.7-5.56-1.06q-3.18-.62-6.34-1.27A622.31,622.31,0,0,1,907,1829q-12.39-4.42-24.24-9.29-22.74-9.35-43.37-20.19-13-6.78-25-14.13c-1.9-1.14-3.77-2.31-5.64-3.47V1604.74a105.49,105.49,0,0,0,2.32,20.5,115.16,115.16,0,0,0,3.32,12.15c5.1,15.34,13.57,30.31,25,44.48,31.94,39.5,87,73,157.09,91.67h0s.21.07.64.18l.2,0c2,.52,4,1,6,1.54q4.49,1.13,9,2.15c1.23.29,2.46.56,3.69.83l1,.22.77.16c.37.08.75.17,1.15.24l1.09.23,1.72.37c1.94.41,3.86.79,5.8,1.17s3.83.72,5.73,1.06c1.67.3,3.35.58,5,.87l2.81.45.64.11.28,0c1,.16,2,.3,2.93.45l2.93.43q8.14,1.19,16.28,2.06l1.83.21.29,0q5,.55,10.13,1c56.9,5.18,134.93,2.7,202.47-33.34.21-.1.42-.2.62-.31,23-11.65,42.51-26,57.32-42.51l.16,8.2Z"/><polygon class="cls-5" points="1855.26 1737.91 1824.59 1811.64 1748.02 1795.84 1737.12 1793.6 1494 1743.45 1494 1663.39 1737.12 1713.54 1748.02 1715.79 1855.26 1737.91"/><path class="cls-2" d="M1676.84,962.73l-261.49,261.49v560.85q-5.3,4-10.89,7.82V1219.71L1669.14,955Z"/><polygon class="cls-2" points="528.44 924.84 400.1 1053.18 400.1 1517.84 389.2 1515.58 389.2 1048.67 520.74 917.13 528.44 924.84"/><path class="cls-2" d="M907,743.63v737.21q-5.56,2.54-10.89,5.26v-738L769.24,621.24l3.86-3.86.28-.28,3.56-3.56Z"/><polygon class="cls-2" points="1267.44 1135.82 1267.44 1696.73 1256.55 1694.48 1256.55 1140.33 1123.91 1007.7 1131.61 1000 1265.85 1134.23 1267.44 1135.82"/><polygon class="cls-2" points="1930.38 1169.63 1748.02 1351.98 1748.02 1795.84 1737.12 1793.6 1737.12 1347.47 1738.72 1345.87 1922.68 1161.92 1930.38 1169.63"/><rect class="cls-2" x="1672.56" y="1388.01" width="10.89" height="182.61" transform="translate(-554.56 1619.81) rotate(-45)"/><rect class="cls-2" x="827.02" y="966.82" width="10.89" height="195.53" transform="translate(-508.95 900.45) rotate(-45)"/><rect class="cls-2" x="857.22" y="808.41" width="302.99" height="10.89" transform="translate(-280.05 951.56) rotate(-45)"/><rect class="cls-2" x="1231.91" y="1060" width="205.43" height="10.89" transform="translate(-362.48 1255.79) rotate(-45)"/><rect class="cls-2" x="389.2" y="653.86" width="10.89" height="397.07"/><rect class="cls-7" x="446.65" y="1401.19" width="24.24" height="24.24"/><rect class="cls-8" x="446.65" y="1329.29" width="24.24" height="24.24"/><rect class="cls-8" x="446.65" y="1257.39" width="24.24" height="24.24"/><rect class="cls-2" x="446.65" y="1473.09" width="24.24" height="24.24"/><rect class="cls-7" x="548.45" y="1431.97" width="24.24" height="24.24"/><rect class="cls-8" x="548.45" y="1360.07" width="24.24" height="24.24"/><rect class="cls-8" x="548.45" y="1288.17" width="24.24" height="24.24"/><rect class="cls-2" x="548.45" y="1503.87" width="24.24" height="24.24"/><rect class="cls-7" x="650.25" y="1462.74" width="24.24" height="24.24"/><rect class="cls-8" x="650.25" y="1390.84" width="24.24" height="24.24"/><rect class="cls-8" x="650.25" y="1318.94" width="24.24" height="24.24"/><rect class="cls-2" x="650.25" y="1534.65" width="24.24" height="24.24"/><rect class="cls-7" x="771.16" y="1383.9" width="24.24" height="24.24"/><rect class="cls-8" x="771.16" y="1312" width="24.24" height="24.24"/><rect class="cls-8" x="771.16" y="1240.1" width="24.24" height="24.24"/><rect class="cls-2" x="771.16" y="1455.8" width="24.24" height="24.24"/><rect class="cls-7" x="974.31" y="1378.73" width="24.24" height="24.24"/><rect class="cls-8" x="974.31" y="1306.83" width="24.24" height="24.24"/><rect class="cls-8" x="974.31" y="1234.93" width="24.24" height="24.24"/><path class="cls-2" d="M998.55,1450.63v4.25q-12.34,1.81-24.24,4.31v-8.56Z"/><rect class="cls-7" x="1076.11" y="1378.73" width="24.24" height="24.24"/><rect class="cls-8" x="1076.11" y="1306.83" width="24.24" height="24.24"/><rect class="cls-8" x="1076.11" y="1234.93" width="24.24" height="24.24"/><path class="cls-2" d="M1100.35,1450.63v1.46q-12.19-1.06-24.24-1.44v0Z"/><rect class="cls-7" x="1177.91" y="1414.68" width="24.24" height="24.24"/><rect class="cls-8" x="1177.91" y="1342.78" width="24.24" height="24.24"/><rect class="cls-8" x="1177.91" y="1270.88" width="24.24" height="24.24"/><rect class="cls-7" x="1310.39" y="1467.92" width="24.24" height="24.24"/><rect class="cls-8" x="1310.39" y="1396.02" width="24.24" height="24.24"/><rect class="cls-8" x="1310.39" y="1324.12" width="24.24" height="24.24"/><path class="cls-2" d="M1334.64,1539.82v14.91a196.08,196.08,0,0,0-14-14.91Z"/><rect class="cls-7" x="1457.52" y="1559.44" width="24.24" height="24.24"/><rect class="cls-8" x="1457.52" y="1487.54" width="24.24" height="24.24"/><rect class="cls-8" x="1457.52" y="1415.64" width="24.24" height="24.24"/><rect class="cls-2" x="1457.52" y="1631.34" width="24.24" height="24.24"/><rect class="cls-7" x="1129.57" y="1781.16" width="24.24" height="24.24"/><rect class="cls-8" x="1129.57" y="1709.26" width="24.24" height="24.24"/><rect class="cls-8" x="1129.57" y="1637.36" width="24.24" height="24.24"/><path class="cls-2" d="M1153.81,1853.06v12.81q-12,.5-24.23.51v-13.32Z"/><rect class="cls-7" x="1003.36" y="1764.93" width="24.24" height="24.24"/><rect class="cls-8" x="1003.36" y="1693.03" width="24.24" height="24.24"/><rect class="cls-8" x="1003.36" y="1621.13" width="24.24" height="24.24"/><path class="cls-2" d="M1027.6,1836.84v22l-1.44-.2c-1.7-.25-3.39-.51-5.09-.79q-8.46-1.33-16.93-2.92l-.78-.15v-18Z"/><rect class="cls-7" x="882.8" y="1741.1" width="24.24" height="24.24"/><rect class="cls-8" x="882.8" y="1669.2" width="24.24" height="24.24"/><rect class="cls-8" x="882.8" y="1597.3" width="24.24" height="24.24"/><path class="cls-2" d="M907,1813v16q-12.39-4.42-24.24-9.29V1813Z"/><rect class="cls-7" x="790.17" y="1697.14" width="24.24" height="24.24"/><rect class="cls-8" x="790.17" y="1625.24" width="24.24" height="24.24"/><rect class="cls-8" x="790.17" y="1553.33" width="24.24" height="24.24"/><path class="cls-2" d="M814.41,1769v16.3c-1.9-1.14-3.77-2.31-5.63-3.47v0q-9.63-6-18.61-12.4v-.4Z"/><rect class="cls-7" x="1255.32" y="1753.22" width="24.24" height="24.24"/><rect class="cls-8" x="1255.32" y="1681.32" width="24.24" height="24.24"/><rect class="cls-8" x="1255.32" y="1609.42" width="24.24" height="24.24"/><path class="cls-2" d="M1279.56,1825.13v22.45q-3.51.92-7,1.79h-17.21v-24.24Z"/><rect class="cls-7" x="1382.1" y="1666.49" width="24.24" height="24.24"/><rect class="cls-8" x="1382.1" y="1594.59" width="24.24" height="24.24"/><rect class="cls-8" x="1382.1" y="1522.69" width="24.24" height="24.24"/><path class="cls-2" d="M1406.34,1738.39v22.46q-3.51.92-7,1.78H1382.1v-24.24Z"/><rect class="cls-7" x="1558.87" y="1633.25" width="24.24" height="24.24"/><rect class="cls-8" x="1558.87" y="1561.35" width="24.24" height="24.24"/><rect class="cls-8" x="1558.87" y="1489.45" width="24.24" height="24.24"/><rect class="cls-2" x="1558.87" y="1705.15" width="24.24" height="24.24"/><rect class="cls-7" x="1662.51" y="1661.19" width="24.24" height="24.24"/><rect class="cls-8" x="1662.51" y="1589.29" width="24.24" height="24.24"/><rect class="cls-8" x="1662.51" y="1517.38" width="24.24" height="24.24"/><rect class="cls-2" x="1662.51" y="1733.09" width="24.24" height="24.24"/><polygon class="cls-9" points="882.8 1617.4 882.8 1617.41 839.43 1608.46 839.43 1608.45 882.8 1617.4"/><polygon class="cls-9" points="1003.35 1642.27 902.82 1621.54 902.87 1621.54 1003.35 1642.27"/><path class="cls-9" d="M1016.06,1778.29c-9.93-2.12-16.47-3.9-18.69-4.52,2,.52,4,1,6,1.54q4.49,1.13,9,2.15C1013.6,1777.75,1014.83,1778,1016.06,1778.29Z"/><rect class="cls-7" x="1790.84" y="1679.41" width="24.24" height="24.24"/><rect class="cls-8" x="1790.84" y="1607.51" width="24.24" height="24.24"/><rect class="cls-8" x="1790.84" y="1535.61" width="24.24" height="24.24"/><rect class="cls-2" x="1790.84" y="1751.31" width="24.24" height="24.24"/><path class="cls-10" d="M1734.41,916.82c2.56,1.22,8.34-1.49,8.46,0s-3.07,2.81-4.23,2.81S1734.41,916.82,1734.41,916.82Z"/><g class="cls-11"><path d="M929.65,1702.44q-22.74,26.43-67,18.1l-117.42-22-88.31,102.6-72.49-13.61,243.74-283.2L1018,1540q44.31,8.31,21.88,34.37Zm-64.55-23.68,92.82-107.85-88.61-16.63-92.82,107.85Z"/><path d="M1322.94,1690.73q-11.52,13.39-41.34,26.71l-250.19,110.89,148.41,27.86-31.93,37.09-235.15-44.14,22.58-26.24,309.36-137.83,45-52.29-88.3-16.58-45.32,52.66-71-13.32,54.2-63q22.11-25.69,66.42-17.38L1348,1601.88q44.29,8.32,22.19,34Z"/><path d="M1596.59,1827.65q-22.74,26.43-67,18.1l-117.43-22-88.31,102.6-72.49-13.61,243.74-283.2L1685,1665.16q44.31,8.31,21.88,34.37ZM1532,1804l92.82-107.85-88.6-16.63-92.83,107.85Z"/></g><path class="cls-12" d="M823.28,1584.52q-1.14,51.17-45,42.53l-116.32-22.89-4.44,198.67-71.81-14.13,12.25-548.38,188.14,37q43.88,8.64,42.76,59.1Zm-72-33.52L756,1342.16l-87.78-17.27-4.66,208.84Z"/><path class="cls-12" d="M1153.28,1506.22q-.57,25.93-16.93,54.39L998.5,1797.79l147,28.93-1.61,71.83L911,1852.71l1.13-50.81,170-294.56,2.26-101.27-87.47-17.21-2.27,102L924.28,1477,927,1355.05q1.11-49.74,45-41.12l140.87,27.72q43.89,8.64,42.78,58.4Z"/><path class="cls-12" d="M1484,1714.53q-1.14,51.17-45,42.53l-116.32-22.89-4.44,198.67-71.82-14.13,12.25-548.38,188.14,37q43.89,8.64,42.76,59.1ZM1412,1681l4.67-208.84-87.78-17.28-4.67,208.85Z"/><path class="cls-3" d="M802,1605.77q-1.15,51.17-45,42.53l-116.32-22.89-4.44,198.67L564.43,1810l12.25-548.38,188.14,37q43.89,8.64,42.76,59.1Zm-72-33.52,4.67-208.84-87.78-17.28L642.26,1555Z"/><path class="cls-3" d="M1132,1527.47q-.58,25.93-16.94,54.38L977.25,1819l147,28.93-1.61,71.83L889.71,1874l1.13-50.81,170-294.56,2.27-101.27-87.48-17.21-2.27,102L903,1498.24l2.73-121.94q1.11-49.74,45-41.12l140.87,27.72q43.89,8.64,42.78,58.4Z"/><path class="cls-3" d="M1462.72,1735.78q-1.14,51.17-45,42.52l-116.32-22.88-4.44,198.67L1225.11,1940l12.26-548.38,188.13,37q43.89,8.64,42.76,59.1Zm-72-33.52,4.67-208.84-87.78-17.28L1302.94,1685Z"/><path class="cls-13" d="M828.83,1336.44l-5.55,248.08s.84,49.47-41.88,62.69c7.56-3.87,17.32-14.2,20.64-41.44l5.54-248.08c3.14-52.87-42.76-59.1-42.76-59.1l-188.14-37,21.25-21.25,188.14,37C835,1287,828.83,1336.44,828.83,1336.44Z"/><polygon class="cls-13" points="640.68 1625.41 661.37 1629.5 657.49 1802.84 636.24 1824.08 640.68 1625.41"/><path class="cls-13" d="M771.7,1649.45a67.33,67.33,0,0,0,9.7-2.24A18.31,18.31,0,0,1,771.7,1649.45Z"/><polygon class="cls-13" points="667.61 1350.2 646.92 1346.13 642.26 1554.97 730.03 1572.25 730.03 1546.82 663.51 1533.73 667.61 1350.2"/><polygon class="cls-13" points="973.32 1512.07 994.57 1490.83 996.28 1414.18 975.6 1410.11 973.32 1512.07"/><path class="cls-13" d="M1122.65,1919.8l1.61-71.83-147-28.93,137.85-237.19s16.24-23.46,16.94-54.38l2.37-106.17s6.5-48.7-42.78-58.4l-140.87-27.72s-43.79-12.92-45,41.12c0,0,.71-75.26,66.25-62.37l140.87,27.72s44.06.81,42.78,58.4l-2.38,106.17s.62,29.87-16.93,54.39L998.5,1797.79l147,28.93-1.61,71.83Z"/><polygon class="cls-13" points="1328.29 1480.21 1307.61 1476.14 1302.94 1684.98 1390.72 1702.26 1391.29 1676.94 1324.19 1663.73 1328.29 1480.21"/><polygon class="cls-13" points="1322.05 1759.48 1301.37 1755.41 1296.93 1954.09 1318.18 1932.85 1322.05 1759.48"/><path class="cls-13" d="M1237.37,1391.58l21.24-21.25,188.14,37s44,4.77,42.76,59.1L1484,1714.53s-3.87,76.87-66.28,63.77c0,0,45.87,12.82,45-42.52l5.54-248.08s2.66-50.72-42.76-59.1Z"/></g></g></svg>