<svg xmlns="http://www.w3.org/2000/svg" xmlns:xlink="http://www.w3.org/1999/xlink" viewBox="0 0 2160 2160"><defs><style>.cls-1{isolation:isolate;}.cls-2{fill:url(#linear-gradient);}.cls-3{fill:#7c0d3f;}.cls-4{fill:#db1f59;}.cls-5{fill:#af144c;}.cls-6{fill:url(#linear-gradient-2);}.cls-7{fill:url(#linear-gradient-3);}.cls-8{fill:#00b4fe;}.cls-9{fill:#efb796;}.cls-10{fill:#d69b7b;}.cls-11{fill:url(#Áåçûìÿííûé_ãðàäèåíò_42);}.cls-12{fill:url(#Áåçûìÿííûé_ãðàäèåíò_118);}.cls-13{fill:url(#Áåçûìÿííûé_ãðàäèåíò_25);}.cls-14{fill:url(#Áåçûìÿííûé_ãðàäèåíò_32);}.cls-15{fill:url(#Áåçûìÿííûé_ãðàäèåíò_5);}.cls-16{fill:url(#Áåçûìÿííûé_ãðàäèåíò_25-2);}.cls-17{fill:url(#Áåçûìÿííûé_ãðàäèåíò_32-2);}.cls-18{fill:url(#Áåçûìÿííûé_ãðàäèåíò_5-2);}.cls-19{fill:#e0a887;}.cls-20{fill:#e0a585;}.cls-21{fill:url(#Áåçûìÿííûé_ãðàäèåíò_5-3);}.cls-22{fill:url(#Áåçûìÿííûé_ãðàäèåíò_44);}.cls-23{fill:url(#Áåçûìÿííûé_ãðàäèåíò_5-4);}.cls-24{fill:#d133e0;opacity:0.3;}.cls-24,.cls-27{mix-blend-mode:multiply;}.cls-25{fill:url(#Áåçûìÿííûé_ãðàäèåíò_5-5);}.cls-26{fill:url(#Áåçûìÿííûé_ãðàäèåíò_44-2);}.cls-27{fill:#fe42ff;opacity:0.5;}.cls-28{fill:url(#Áåçûìÿííûé_ãðàäèåíò_5-6);}</style><linearGradient id="linear-gradient" x1="711.34" y1="1283.11" x2="1402.44" y2="2005.46" gradientUnits="userSpaceOnUse"><stop offset="0" stop-color="#99ecff"/><stop offset="0.13" stop-color="#99ecff"/><stop offset="0.15" stop-color="#95e5f8" stop-opacity="0.97"/><stop offset="0.35" stop-color="#6195a1" stop-opacity="0.63"/><stop offset="0.52" stop-color="#37555c" stop-opacity="0.36"/><stop offset="0.66" stop-color="#19272a" stop-opacity="0.17"/><stop offset="0.77" stop-color="#070b0b" stop-opacity="0.05"/><stop offset="0.83" stop-opacity="0"/></linearGradient><linearGradient id="linear-gradient-2" x1="974.56" y1="1312.84" x2="398.56" y2="103.24" gradientUnits="userSpaceOnUse"><stop offset="0.18" stop-color="#99ecff"/><stop offset="0.24" stop-color="#b4f1ff"/><stop offset="0.32" stop-color="#d4f7ff"/><stop offset="0.4" stop-color="#ecfbff"/><stop offset="0.48" stop-color="#fafeff"/><stop offset="0.54" stop-color="#fff"/></linearGradient><linearGradient id="linear-gradient-3" x1="745.84" y1="1363.64" x2="1278.64" y2="1867.64" gradientUnits="userSpaceOnUse"><stop offset="0" stop-opacity="0.2"/><stop offset="0.53" stop-opacity="0"/></linearGradient><linearGradient id="Áåçûìÿííûé_ãðàäèåíò_42" x1="1154.46" y1="1081.63" x2="1199.96" y2="1081.63" gradientTransform="matrix(-1, 0, 0, 1, 1912.23, 0)" gradientUnits="userSpaceOnUse"><stop offset="0" stop-color="#123ba5"/><stop offset="0.01" stop-color="#133aa5"/><stop offset="0.26" stop-color="#2f29a4"/><stop offset="0.47" stop-color="#401fa3"/><stop offset="0.63" stop-color="#461ba3"/><stop offset="1" stop-color="#6907a5"/></linearGradient><linearGradient id="Áåçûìÿííûé_ãðàäèåíò_118" x1="1158.23" y1="1075.93" x2="1176.52" y2="1075.93" gradientTransform="matrix(-1, 0, 0, 1, 1912.23, 0)" gradientUnits="userSpaceOnUse"><stop offset="0" stop-color="#461ba3"/><stop offset="1" stop-color="#6907a5"/></linearGradient><linearGradient id="Áåçûìÿííûé_ãðàäèåíò_25" x1="1141.97" y1="1360.69" x2="1155.77" y2="1360.69" gradientTransform="matrix(-1, 0, 0, 1, 1912.23, 0)" gradientUnits="userSpaceOnUse"><stop offset="0" stop-color="#2c60da"/><stop offset="1" stop-color="#782eeb"/></linearGradient><linearGradient id="Áåçûìÿííûé_ãðàäèåíò_32" x1="1133.54" y1="1356.78" x2="1171.62" y2="1356.78" gradientTransform="matrix(-1, 0, 0, 1, 1912.23, 0)" gradientUnits="userSpaceOnUse"><stop offset="0" stop-color="#4074ee"/><stop offset="1" stop-color="#8c42ff"/></linearGradient><linearGradient id="Áåçûìÿííûé_ãðàäèåíò_5" x1="1137.74" y1="1354.76" x2="1171.84" y2="1354.76" gradientTransform="matrix(-1, 0, 0, 1, 1912.23, 0)" gradientUnits="userSpaceOnUse"><stop offset="0" stop-color="#eb4cd4"/><stop offset="0.04" stop-color="#e849d5"/><stop offset="0.32" stop-color="#d739dd"/><stop offset="0.53" stop-color="#d133e0"/><stop offset="0.74" stop-color="#ce31df"/><stop offset="0.91" stop-color="#c42cdd"/><stop offset="1" stop-color="#bb27db"/></linearGradient><linearGradient id="Áåçûìÿííûé_ãðàäèåíò_25-2" x1="1174.77" y1="1353.69" x2="1189.25" y2="1353.69" xlink:href="#Áåçûìÿííûé_ãðàäèåíò_25"/><linearGradient id="Áåçûìÿííûé_ãðàäèåíò_32-2" x1="1163.96" y1="1353.56" x2="1197.8" y2="1353.56" xlink:href="#Áåçûìÿííûé_ãðàäèåíò_32"/><linearGradient id="Áåçûìÿííûé_ãðàäèåíò_5-2" x1="1163.96" y1="1345.75" x2="1197.31" y2="1345.75" xlink:href="#Áåçûìÿííûé_ãðàäèåíò_5"/><linearGradient id="Áåçûìÿííûé_ãðàäèåíò_5-3" x1="1133.27" y1="1154.24" x2="1156.74" y2="1154.24" xlink:href="#Áåçûìÿííûé_ãðàäèåíò_5"/><linearGradient id="Áåçûìÿííûé_ãðàäèåíò_44" x1="1160.47" y1="1114.26" x2="1204.42" y2="1114.26" gradientTransform="matrix(-1, 0, 0, 1, 1912.23, 0)" gradientUnits="userSpaceOnUse"><stop offset="0" stop-color="#ff5eff"/><stop offset="0.06" stop-color="#ff59ff"/><stop offset="0.33" stop-color="#fe48ff"/><stop offset="0.53" stop-color="#fe42ff"/><stop offset="0.73" stop-color="#fb40ff"/><stop offset="0.89" stop-color="#f13aff"/><stop offset="1" stop-color="#e433ff"/></linearGradient><linearGradient id="Áåçûìÿííûé_ãðàäèåíò_5-4" x1="1142.36" y1="1138.11" x2="1213.96" y2="1138.11" xlink:href="#Áåçûìÿííûé_ãðàäèåíò_5"/><linearGradient id="Áåçûìÿííûé_ãðàäèåíò_5-5" x1="1137.13" y1="1218.05" x2="1223.42" y2="1218.05" xlink:href="#Áåçûìÿííûé_ãðàäèåíò_5"/><linearGradient id="Áåçûìÿííûé_ãðàäèåíò_44-2" x1="1162" y1="1167.51" x2="1205.21" y2="1167.51" xlink:href="#Áåçûìÿííûé_ãðàäèåíò_44"/><linearGradient id="Áåçûìÿííûé_ãðàäèåíò_5-6" x1="1190.4" y1="1145.93" x2="1248.05" y2="1145.93" xlink:href="#Áåçûìÿííûé_ãðàäèåíò_5"/></defs><g class="cls-1"><g id="Layer_1" data-name="Layer 1"><polygon class="cls-2" points="664.53 1335.2 749.09 1283.16 1403.29 1863.7 1267.98 2007.57 664.53 1335.2"/><path class="cls-3" d="M636.13,514.33l-.25.21-.17.13v512.4c-83.74,39.37-156,36-200.75-4,36.72,75.06,124.36,93.85,230.57,43.91V490.37Q650.57,501.76,636.13,514.33Zm-.42-333.1V369c-185.64,135.25-329.9,381.56-329.9,572.82,0,72.66,20.82,127.64,56.82,162.75-17.42-32.34-27-73.51-27-122.82,0-191.24,144.27-437.57,329.91-572.81V221.18Zm0,981v134l29.82-18.35V1148.47Q650.43,1156.06,635.71,1162.21Zm114.38-859v53.69c115.12-57.83,214.32-53.38,273.08,4C976.71,274.55,874.51,251,750.09,303.18ZM950.83,442.3c12,24.51,18.55,55,18.55,91.11,0,136-93.23,307.67-219.29,417.31V1015C891,907.78,999.2,719.91,999.2,573.35,999.2,513.89,981.39,469.56,950.83,442.3Z"/><path class="cls-4" d="M635.71,514.67v0l.17-.16Z"/><path class="cls-5" d="M1050.18,483.68c0-191.26-144.27-260-329.91-166.75V129.2l-84.55,52V369C450.07,504.21,305.8,750.53,305.8,941.79s144.27,260,329.92,166.75v187.72l84.55-52V1056.5C905.91,921.25,1050.18,674.93,1050.18,483.68ZM386.61,892.06c0-146.57,108.21-334.44,249.11-441.63v576.64C494.82,1093.3,386.61,1038.63,386.61,892.06Zm333.66,83V398.4c140.89-66.23,249.1-11.56,249.1,135S861.16,867.84,720.27,975Z"/><path class="cls-6" d="M1080,523.61c0-191.26-144.27-260-329.91-166.74V169.14l-84.56,52V408.9C479.89,544.15,335.62,790.47,335.62,981.73s144.27,260,329.91,166.74V1336.2l84.56-52V1096.44C935.73,961.19,1080,714.87,1080,523.61ZM416.43,932c0-146.58,108.21-334.44,249.1-441.63V1067C524.64,1133.24,416.43,1078.57,416.43,932Zm333.66,83V438.34c140.89-66.24,249.1-11.57,249.1,135S891,907.78,750.09,1015Z"/><path class="cls-5" d="M665.53,490.37l-29.4,24Q650.55,501.78,665.53,490.37Z"/><path class="cls-4" d="M635.71,1027.07,665.53,1067c-106.21,49.94-193.85,31.15-230.57-43.91C479.74,1063.08,552,1066.44,635.71,1027.07Z"/><path class="cls-4" d="M335.62,981.72c0,49.31,9.59,90.48,27,122.82-36-35.11-56.82-90.09-56.82-162.75,0-191.26,144.26-437.57,329.9-572.82v1.58l29.82,38.36C479.89,544.15,335.62,790.48,335.62,981.72Z"/><path class="cls-4" d="M1023.17,360.87c-58.76-57.38-158-61.83-273.08-4V303.18C874.51,251,976.71,274.55,1023.17,360.87Z"/><path class="cls-4" d="M999.2,573.35C999.2,719.91,891,907.78,750.09,1015V950.72C876.15,841.08,969.38,669.44,969.38,533.41c0-36.09-6.55-66.6-18.55-91.11C981.39,469.56,999.2,513.89,999.2,573.35Z"/><path class="cls-4" d="M665.53,1148.47V1336.2l-29.82-39.94v-134Q650.42,1156.07,665.53,1148.47Z"/><polygon class="cls-4" points="750.09 169.13 720.27 187.49 665.53 221.18 635.71 181.23 720.27 129.2 750.09 169.13"/><polygon class="cls-4" points="665.53 221.18 665.53 408.9 635.71 370.55 635.71 181.23 665.53 221.18"/><polygon class="cls-4" points="665.53 490.37 665.53 1067.01 635.71 1027.07 635.71 514.67 635.88 514.54 636.13 514.33 665.53 490.37"/><polygon class="cls-7" points="740.17 1368.52 1225.91 1882.31 1303.43 1826.53 770.26 1344 740.17 1368.52"/><path class="cls-8" d="M718.29,1344.92l6.43,1.53-2.64-3.72a7.74,7.74,0,0,1,.83-.48l7.15,3.75a4.32,4.32,0,0,1-.65.38l-6.09-3.2,2.54,3.61s0,0-.07.06l-.33.19-.12,0-6.27-1.45,5.55,3.5-.31.2a2.36,2.36,0,0,1-.35.18l-6.49-4.13A6.44,6.44,0,0,1,718.29,1344.92Z"/><path class="cls-8" d="M696.57,1369.74l1.94.64-.11.09a3.43,3.43,0,0,1-.43.22l-1.94-.64A2.9,2.9,0,0,1,696.57,1369.74Z"/><path class="cls-9" d="M714.42,1085.37a12.31,12.31,0,0,1,.9,1.36c.57,1,.31,2.39.41,3.52a10.83,10.83,0,0,0,1.64,4c.77,1.35,1.85,2.22,2.74,3.5s1.54,2.84,2.92,3.2a4.76,4.76,0,0,0,2,.15,7.61,7.61,0,0,0,3.08-1.08c.24-.13.7,4.1.7,4.4a12,12,0,0,1-1,4.87,25.48,25.48,0,0,1-2.6,4.75q3.33-.42,6.63-1c3.1-.56,6.17-1.25,9.22-2,.73-.19,9.08-2.52,9-2.72-1-2.63-1.9-2.91-2.35-5.67a38.39,38.39,0,0,1-.49-7.24,4.87,4.87,0,0,0-.3-1.44c-.17-.73-.6,0-.73-.75a3.27,3.27,0,0,0-.73-1.62,9.19,9.19,0,0,0-2.31-1.84l-7.67-4.82-13.25-8.32c-1.49-1-3.18-1.93-4.92-1.61-3.81.69-5.83,5.78-3.89,9C713.72,1084.42,714.08,1084.89,714.42,1085.37Z"/><path class="cls-10" d="M726.81,1085.22a16.37,16.37,0,0,0-3-.14,6.51,6.51,0,0,0-1.17.07,12,12,0,0,1-1.33.25,12.18,12.18,0,0,1-2.83.06,11.15,11.15,0,0,1-1.41-.21,9.5,9.5,0,0,1-2-1,34.74,34.74,0,0,0,3.88,4.28c.44.41,2.2,2.09,3.34,2.13.38,0,.52-.17.86-.27a1.89,1.89,0,0,1,1.15.06,3.33,3.33,0,0,1,1.54,1.43,10.21,10.21,0,0,1,1.22,3.29,3.53,3.53,0,0,1-.16,2.16,1.5,1.5,0,0,1-1.81.83,5.15,5.15,0,0,0,1.64.73q.35.06.69.09a4.93,4.93,0,0,0,.66-.07,2,2,0,0,1,.34,0,.38.38,0,0,1,.22.13.31.31,0,0,1,0,.23c-.12.51-.89,1-1.18,1.13s-.9.4-1.35.57a2.45,2.45,0,0,1,1.94,1.34,5.62,5.62,0,0,1,.51,2.33,14.65,14.65,0,0,1-.43,4.48,27.37,27.37,0,0,1-1.46,3.94c-.25.52-.5,1-.79,1.54a11.06,11.06,0,0,1,4.88-1.12c1.14,0,2.28,0,3.42,0a22.4,22.4,0,0,1,3.21-.08c-.25-.59-4.34-8.45-3.91-15.34.09-1.49-.14-3-.08-4.47s.48-2.92.05-4.23C732.7,1086.94,729,1085.54,726.81,1085.22Z"/><path class="cls-11" d="M736.81,1099.9c.41.09.83.16,1.25.21,2.66.33,4.82.38,7.37-1.47a4.24,4.24,0,0,0,1.55-2.5c.13-.55,1-3,1.26-3.74.5-1.43.85-2.9,1.21-4.36.16-.69.33-1.37.49-2.06l.24-1a6.13,6.13,0,0,1,.31-1c.08-.06.42-.34.62-.48s1.8-1.25,2.29-1.65a13.15,13.15,0,0,0,2.27-2.14,10.06,10.06,0,0,0,1.6-3.56c.82-3,.75-6.27-1.14-8.93a9.29,9.29,0,0,0-10.8-3.26,10.21,10.21,0,0,0-1.85.9c-.16.1-1.61,1.49-1.63,1.48a22.26,22.26,0,0,0-7.64-3.13,26.52,26.52,0,0,0-8.47.35c-5.49.91-10.52,5.64-12.41,10.21a13.23,13.23,0,0,0-1,6.42,9.59,9.59,0,0,0,2.24,4.16,30.67,30.67,0,0,0,4.25,3.87,6,6,0,0,0,2.32,1.33c.8.21,1.56-.22,2.38-.14a3.64,3.64,0,0,1,2.22,1,10.27,10.27,0,0,1,1.58,2.58,13.39,13.39,0,0,0,5.66,5.52A14.74,14.74,0,0,0,736.81,1099.9Z"/><path class="cls-12" d="M736.5,1072.81a10.73,10.73,0,0,0-.53,6.37,8.66,8.66,0,0,0,2.95,4.53,10.16,10.16,0,0,0,6.75,2.09,10.48,10.48,0,0,0,2.6-.55,8.23,8.23,0,0,0,1.93-1c.15-.11.27-.22.42-.34a4.71,4.71,0,0,1,.42-.33c.34-.25.59-.45.86-.67a9.17,9.17,0,0,0,1.44-1.48,2.9,2.9,0,0,0,.66-1.62,2.32,2.32,0,0,0-.87-1.72,14.27,14.27,0,0,0-1.61-1c-1.73-1-3.51-2.24-4.25-4.09s-.73-3.48-.93-5.86c-.86,5.51-.06,7.83,2.86,10.16,1.14.91,1.82,1,1.9,2.46s-1.14,2.44-2.37,3a8.53,8.53,0,0,1-6.29.49c-2.08-.82-3.33-1.5-4.44-3.44a7.44,7.44,0,0,1-1.1-4,11.38,11.38,0,0,1,1.27-4.14,18.91,18.91,0,0,1,4-5.61S738.09,1069.05,736.5,1072.81Z"/><path class="cls-13" d="M763.51,1370.14c-2.28,0-4.77-1.39-7-1.39a50.43,50.43,0,0,1,1.77-7.3,16.46,16.46,0,0,1,3.87-6.38,10.3,10.3,0,0,1,5.31-2.81c.26,0,2.29-1.32,2.39-1s.64,2.16.4,2c-1.32-.77-3,2.44-4.16,6.23S765.33,1364.44,763.51,1370.14Z"/><path class="cls-14" d="M740.61,1367.71c.27,2.69,2.16,4.21,4.28,5.35a20.25,20.25,0,0,0,8.15,1.88,25,25,0,0,0,6.8-.7c1.13-.29,3.75-1.78,4.08-6.45.21-2.94,1.27-9.63,3.18-12.49,1-1.52,1.67-2.16,2.13-2.21,1.8-.2,4.18,4.13,4.67,5.43s1,2.44,1.43,3.68c.23.61.92,2.33,1.16,3a4.42,4.42,0,0,1,.45.28c.79-.33,1.59-.57,1.7-.91s-.09-1-.3-1.61c-.45-1.17-.86-2.28-1.23-3.5a35,35,0,0,1-1.47-5,34.66,34.66,0,0,1-.29-10.29,4.6,4.6,0,0,0-1.68-3.94c-.92-.68-1-1.15-2.1-1.43a2.36,2.36,0,0,0-1.18-.06,2.48,2.48,0,0,0-.9.49,8.42,8.42,0,0,0-2.22,2.9,24.56,24.56,0,0,0-1.3,3.44c-.82,2.57-1.84,5-2.87,7.54a35.07,35.07,0,0,1-3,6.13,11.91,11.91,0,0,1-5,4.51,17.81,17.81,0,0,1-6.9,1c-1.59,0-3,1.12-4.59,1.4a8.82,8.82,0,0,0-1.62.35C741.48,1366.63,740.55,1367.16,740.61,1367.71Z"/><path class="cls-15" d="M773.88,1339.9a3.71,3.71,0,0,1,.61,2.18,5.43,5.43,0,0,1-1.44,3.1c-2.25,2.8-9,9.38-10.37,18.66-.35,2.33-.22,4.91-1.67,6.76-1.31,1.68-3.56,2.3-5.68,2.54a24,24,0,0,1-9.19-.74,9.1,9.1,0,0,1-4.11-2.15c-1.09-1.11-2-3-1.45-4.41.74-1.79,3.07-2.59,4.82-3.43,2.36-1.11,7.73-3.58,7.73-9.08,0-3.24,1.19-1.48,3-4.18s4.47-4.93,6.85-7.23a28.25,28.25,0,0,0,3.29-3.71c.89-1.25-.11-2.07,1.63-2A7.62,7.62,0,0,1,773.88,1339.9Z"/><path class="cls-16" d="M737.46,1350.88h0a2,2,0,0,1-.28.83c-.17.39-.27.8-.45,1.19a2.53,2.53,0,0,1-1.19,1.14,43.53,43.53,0,0,1-5.95,3.08c-2.07.83-5.34,1.47-6.61,1.22a8.61,8.61,0,0,1,1-4.12,6.88,6.88,0,0,1,2.23-2.26,15.87,15.87,0,0,1,2.86-1.42c.79-.3,1.61-.53,2.39-.85a9.18,9.18,0,0,1,2.18-.67,3.75,3.75,0,0,1,3.5,1.12A1.29,1.29,0,0,1,737.46,1350.88Z"/><path class="cls-17" d="M741.23,1358.73c-.06.54-.47,3.47-.51,4s0,1-.3,1.27a1.91,1.91,0,0,1-1.24.28,2.49,2.49,0,0,1-1.17-.63c0-.6,0-1.27,0-1.92-.09-4.3,0-6.52-1.09-10.08-.12-.39-.66-2.72-3.65-2a8.21,8.21,0,0,0-2.82,1.12c-2.22,1.44-3.15,4.16-4.79,6.23-.63.8-1.36,1.53-2.38,1.4a4.83,4.83,0,0,1-2.37-1.06,26.17,26.17,0,0,1-4.83-5.82c-2-3.42-2-5.38-1-7.78.15-.35.86-.47,1.06-.15l3.68,5.57a11,11,0,0,0,1.71,2.18,3.78,3.78,0,0,0,2.49,1.07c1.8,0,3.07-1.67,4.53-2.71,2.41-1.72,5.55-1.85,8.43-2.5a22.35,22.35,0,0,0,7.94-3.53,5.34,5.34,0,0,1,1.26-.74,2.28,2.28,0,0,1,1-.07,3.31,3.31,0,0,0,.63,0,.34.34,0,0,1,.38.24,3.77,3.77,0,0,1-1.2,3.4,20.94,20.94,0,0,0-2.54,2.77,22.49,22.49,0,0,0-2.08,4A34.81,34.81,0,0,0,741.23,1358.73Z"/><path class="cls-18" d="M748,1343.94c-1.13,1.93-4.41,2.58-6.62,2.85a35.26,35.26,0,0,0-9,2,11.87,11.87,0,0,0-5.91,5.15c-.5.79-1.23,2.24-2.14,2.64a2.86,2.86,0,0,1-2.68-.33c-1.11-.69-6-6.07-6.58-9.28a5.72,5.72,0,0,1,.63-4.4,4.88,4.88,0,0,1,3.15-1.8,8.23,8.23,0,0,1,3.69.27c6.19,1.85,5.72-1.26,7.86-1.37,2-.11,2.28.49,4-.47,2.14-1.19,4.19-1.26,6.33-2.45,1.07-.59,2.13-1.27,3.24-1.79s1.33.44,2,1.08C748.77,1338.52,748.36,1343.35,748,1343.94Z"/><path class="cls-10" d="M736.34,1266.34c.9,12.41,1.41,14.2-.07,26.59-.37,3.08-.76,7.48-1.18,11.83-.25,2.68-.82,13.25-1.07,15.94-.53,5.82-3,10.45-5.65,15.1-.65,1.14-3.92,5.35-4.63,6.49a16.27,16.27,0,0,1-1.07,1.54c-.19.24-.39.48-.59.7s-.46.47-.66.73c0,0-.06.09,0,.13s.07,0,.11,0a2.27,2.27,0,0,0,.73-.43l.76-.49,1.59-1a23.11,23.11,0,0,1,3.81-2,28,28,0,0,1,5.27-1.31,47.87,47.87,0,0,1,5.24-.42,14.25,14.25,0,0,0,4.34-.91,7.76,7.76,0,0,0,2.83-2,26.23,26.23,0,0,1-.62-5.33c.12-5.14,1.35-7.57,3.07-12.8,1.25-3.8,1.4-6.53,3.08-10.16s3.29-8.25,4.65-11.87c2-5.36,3.27-12.65,2.47-18.33a65.23,65.23,0,0,0-3.1-13.63c-.25-.65-.43-3.41-1.07-3.82s-2.52,2.7-3.24,2.89c-2.28.64-4.59,1.18-6.92,1.64C743.73,1265.51,736.35,1266.42,736.34,1266.34Z"/><path class="cls-9" d="M753.92,1298.9c0,.17,1.52,5.37,3.26,12.15.09.36,2.9,11.25,3.87,14.33,1.92,6.08,6.9,10.73,6.83,10.85a60,60,0,0,1-5.43,8.66,23.28,23.28,0,0,0-4.14,8c-.78,2.8-1.52,5.27-2.17,7.1a4.62,4.62,0,0,1-5,3.31c-.51-.13-.7-.42-.6-1.57.14-1.55,1.95-3,2.16-5.47a45.28,45.28,0,0,0,0-10.27c-.48-8.74-2.92-13.22-3.91-15-1.2-2.18-7.57-12.62-14.89-23.65-6-9-12-20.9-13.71-22.88a67.81,67.81,0,0,1-6-7.76c-.29-.47-.21-.74.5-1.1s2,.84,2.67.71c1.57-.32,12.46-7.9,12.92-8.12s.69-.1,1.13.18c.78.5,3.74,2.52,4.5,3.05C749.74,1281.09,752.53,1293.55,753.92,1298.9Z"/><path class="cls-19" d="M723,1282.23c.06.17,23.88,38.87,25.29,41.77,8.44,17.43,8.19,32.87,2.91,39.3-.34.41-.7-.42-.6-1.57.14-1.55,1.95-3,2.16-5.47a45.28,45.28,0,0,0,0-10.27c-.48-8.74-2.92-13.22-3.91-15-1.2-2.18-7.57-12.62-14.89-23.65-6-9-12-20.9-13.71-22.88a67.81,67.81,0,0,1-6-7.76c-.29-.47-.21-.74.5-1.1s2,.84,2.67.71c1.57-.32,12.46-7.9,12.92-8.12s.69-.1,1.13.18c.78.5,5.09,2.34,4.5,3.05C729.42,1279.36,721.38,1277.33,723,1282.23Z"/><path class="cls-20" d="M767.22,1201.07a11.82,11.82,0,0,1,1.08,1.37,5,5,0,0,1,.62,3,10.49,10.49,0,0,1-.76,3,22.89,22.89,0,0,1-2.41,4.53,2.26,2.26,0,0,1-1.34,1.1.67.67,0,0,1-.58-.13.89.89,0,0,1-.16-.88,3.87,3.87,0,0,0,.06-1.07,9.36,9.36,0,0,1,.09-1.3,24.54,24.54,0,0,1,.5-3.07,8.25,8.25,0,0,0,.32-1.6c0-.64,0-1.28,0-1.91a28.35,28.35,0,0,1,.42-3.79,2.39,2.39,0,0,1,.35-1,1,1,0,0,1,.56-.41c.41-.06.31.58.38.83a3.75,3.75,0,0,0,.74,1.3Z"/><path class="cls-9" d="M771.13,1206.48a17.5,17.5,0,0,1-1.7,3.27,13.42,13.42,0,0,1-2.24,2.84.75.75,0,0,1-1,0,1,1,0,0,1,0-1.18,29.2,29.2,0,0,0,1.65-3.37,8.9,8.9,0,0,0,.82-4,5.73,5.73,0,0,0-1.49-2.87,26.55,26.55,0,0,1-2.12-2.51,2.58,2.58,0,0,1-.51-1.46.88.88,0,0,1,.21-.62,3.47,3.47,0,0,1,.86-.28c1.13-.38,2.25-.82,3.34-1.31.53-.23,1.91-1.32,2-.66.19,3.64,1.07,6.58,1.06,8.06A9.81,9.81,0,0,1,771.13,1206.48Z"/><path class="cls-21" d="M777.49,1150.48a45,45,0,0,1,1.22,6c.7,6.57-.15,11.9-1.5,18.25-1,4.75-3.86,10.08-5.35,14.69-.57,1.76-.4,4.14-1.38,5.71a6.51,6.51,0,0,1-4.12,2.83,4.62,4.62,0,0,1-5-1.59c-1.12-1.64-.53-3.6-.13-5.55a83.56,83.56,0,0,0,2.06-12.6q.28-6.6.86-13.19c.22-2.53.64-5.07.75-7.6.1-2.15-1.19-4-2.1-5.84a65.94,65.94,0,0,1-3.53-8.26c-1.44-4.34-3.27-9.06-3.77-13.6-.32-2.9.72-5.48,1.28-8.34a13.5,13.5,0,0,1,4-7.6c1.94-1.73,4.16-3.85,6.76-3.27,1.4.31,2.06,3.47,2.41,4.72.45,1.58.87,3.18,1.27,4.78,1.62,6.43,2.92,12.93,4.1,19.46.52,2.85,1,5.76,1.53,8.59C777.09,1148.86,777.29,1149.67,777.49,1150.48Z"/><path class="cls-22" d="M716.07,1118.35c2.24-1.43,4.53-2.35,6.61-4a19.43,19.43,0,0,1,2.65-2,34.18,34.18,0,0,1,5.4-2.48c4.79-1.34,8-2.25,12.66-3.91,1.29-.45,3.47-1.57,4-2.33a1.41,1.41,0,0,0,.35-1.06,4.06,4.06,0,0,1,1.25.21,16.35,16.35,0,0,1,1.91,3.33c.41.89,1.21,1.11.75,2s-2.39,1.52-3.41,1.93c-3,1.21-6.06,2.32-9.11,3.43l-25,9.09a41.54,41.54,0,0,0-6.31,3.39C708.78,1123.51,714.33,1119.46,716.07,1118.35Z"/><path class="cls-23" d="M750.83,1106c.67-.14,4.52-.4,5.52-.39,1.23,0,5-.14,7,.42a14.07,14.07,0,0,1,2.73,2,13.6,13.6,0,0,1,2.58,3.31,10.66,10.66,0,0,1,1.16,4.85,20.55,20.55,0,0,1-.43,5.48,24,24,0,0,1-3.42,7c-.72,1.12-1.45,2.23-2.11,3.39s-1.12,2.29-1.82,3.36c-1,1.48-1.93,2.95-2.88,4.43a104.6,104.6,0,0,0-6.52,11.71q-1.45,3.06-2.72,6.21c-.76,1.91-1.2,4.14-2.5,5.74l-.44.51c-2.17,2.32-5.33,3.41-8.39,4.22a76,76,0,0,1-12.87,2.22,26,26,0,0,1-10.48-.78c-3.34-1.13-6.4-3.6-7.44-7a6.56,6.56,0,0,0-.34-1.17,3.3,3.3,0,0,1-.38-.88c-.16-.84-.06-3.08-.42-4.59-.81-3.39-3.16-5.68-5.09-8.58a.35.35,0,0,1-.05-.08c-8.19-11.05.6-21.45,8.37-24.14.48-.16,4.79-2.43,5.67-2.86a94.36,94.36,0,0,1,15.57-6.35c5-1.43,10.67-2.36,15.42-4.57A13.64,13.64,0,0,0,750.83,1106Z"/><path class="cls-24" d="M722.16,1149.27c-1,3.82-2.33,7.67-2.21,11.63s.51,9.6,1.88,10.81c-.92,1.47-4.75-1.46-6.56-2.06-3.34-1.13-6.4-3.6-7.44-7a6.56,6.56,0,0,0-.34-1.17,3.3,3.3,0,0,1-.38-.88c-.16-.84-.06-3.08-.42-4.59-.81-3.39-3.16-5.68-5.09-8.58a.35.35,0,0,1-.05-.08c-1.66-2.24,5.08-5.84,6.83-7l8.36-5.52c.62-.41-2.45-6-1.78-5.64C727.13,1135.32,723.2,1145.45,722.16,1149.27Z"/><path class="cls-25" d="M713.18,1167a19.06,19.06,0,0,1-6-6.21,38,38,0,0,1,1.07,10.85,68.11,68.11,0,0,1-2.69,15.13c-1,3.8-4,18.31-4.32,21.56-1.79,20.47,1.8,35.61,4,42.9,3.14,10.2,7,20.92,8.84,26.71.41,1.28,9.72-1.44,10.78-1.78a77.37,77.37,0,0,0,10.72-4.4c6.73-3.32,12.71-6.48,20.52-6.84,0-6.8,3.35-16.33,4.59-22.92,2.84-15.06,6.84-37.08,5.78-45.67-.71-5.76-2.56-12.68-5.87-17.49-2.61-3.8-7.19-8.94-9.35-13-1.16-2.18-.86-4.28-1.21-8.07a28.31,28.31,0,0,1-11,9C734.16,1169.17,724.25,1172.87,713.18,1167Z"/><path class="cls-24" d="M712.93,1166.86a25.1,25.1,0,0,1-5.72-5.89,43.18,43.18,0,0,1,1,10.69,68.11,68.11,0,0,1-2.69,15.13c-1,3.8-4,18.31-4.32,21.56-1.79,20.47,1.8,35.61,4,42.9,3.14,10.2,6.94,20.93,8.84,26.71.24.74,3.95,0,5-.25-23.5-66.91,13.57-62,3.19-100.6-.46-1.71-1.58-5.94-3.25-6.72A36.47,36.47,0,0,1,712.93,1166.86Z"/><path class="cls-26" d="M707,1159.86c.22,2.4.61,4.85.92,7.23.17,1.4.08,2.76.85,3.94a12.76,12.76,0,0,0,5.19,4,24.52,24.52,0,0,0,5.81,1.82,26.07,26.07,0,0,0,3,.36,29.83,29.83,0,0,0,6.87-.33,35.52,35.52,0,0,0,7.68-2.22c.86-.36,1.71-.75,2.55-1.16,3.66-1.83,7.45-4.2,9.63-8.07.68-1.19.54-2.4.65-3.76a11.7,11.7,0,0,0,0-2.05,15.39,15.39,0,0,0-.13-1.79,32,32,0,0,1-11.15,8.47c-4.53,2-12.77,5.64-22.75,2.12C715.16,1168,708.72,1164.72,707,1159.86Z"/><path class="cls-27" d="M716.15,1168.38a23.78,23.78,0,0,0,4.73,1.13l0,0,1.45,7.57c-.83-.07-1.66-.16-2.49-.3A24.52,24.52,0,0,1,714,1175a12.76,12.76,0,0,1-5.19-4c-.77-1.18-.68-2.54-.85-3.94-.31-2.38-.7-4.83-.92-7.23C708.72,1164.72,715.16,1168,716.15,1168.38Z"/><path class="cls-9" d="M668.27,1132.32a17.05,17.05,0,0,0-.93-2.5,7.09,7.09,0,0,0-3.43-4.21,13.58,13.58,0,0,0-2.11-1.27c-.45-.09-1.07,0-1.43-.3s-1.13-.75-1.49-1a20.28,20.28,0,0,0-4.38-1.8c-1.75-.63-3.19-1.41-4.92-2.09-.38-.15-1.12-.52-1.51-.65-1.07-.34-1.43.63-.94,1.36a8.69,8.69,0,0,0,1.88,1.53,16.36,16.36,0,0,0,2.32,1.29c.79.38,2.37.91,2.84,1.63a8,8,0,0,0-1.39,0,1.72,1.72,0,0,0-1.31.92c-.22.51-.19,1.4.34,1.57a1.52,1.52,0,0,0-1.84,1.31,2.21,2.21,0,0,0,1,2c-.52-.26-1,.2-1.21.61a2,2,0,0,0,.29,1.86c1.47,2.43,4.32,4.32,6.8,5.69,1.19.65,2.47.8,3.57,1.54a24.88,24.88,0,0,1,3.87,3.53c.39.44.93,1,1.53.63.22-.14.38-.47.58-.65s-.15-1.38.2-1.62a31.78,31.78,0,0,1,5-2.61c.46-.19-2.27-2.82-2.44-3.08a7,7,0,0,1-.69-2.94C668.37,1132.78,668.33,1132.55,668.27,1132.32Z"/><path class="cls-28" d="M664.18,1143.19a5.67,5.67,0,0,1,1.73-3.73,11.42,11.42,0,0,1,4.35-2.28c.35.27,2.18,1.39,3,1.85,2,1.09,8,4,8.93,4.39,2.32,1.06,7.25,4.07,8.72,4.79.14-.08.42-.22.58-.33.45-.31,3.54-3,4.52-4a42.37,42.37,0,0,0,3-3.26c.48-.58.94-1.18,1.4-1.78,1.06-1.42,4.08-7,5-8.27a5.66,5.66,0,0,1,3.51-2.16,10.81,10.81,0,0,1,9.24,3,11,11,0,0,1,2.49,3.66,12.53,12.53,0,0,1,1,7.2c-.28,1.27-1.38,2.17-2.25,3s-1.82,1.7-2.78,2.49c-1.35,1.13-2.74,2.25-4.16,3.3-.63.47-1.26,1-1.88,1.44-1.3,1-2.58,2-3.88,3.06-1.53,1.21-3.12,2.35-4.7,3.5-1.13.82-2.28,1.62-3.42,2.43l-.22.14,0,0,0,0-.27.14c-.77.41-2.7,1.47-2.83,1.51a4.06,4.06,0,0,1-1.91.32,5.53,5.53,0,0,1-1.47-.44c-3-1.22-6-2.36-8.9-3.77l-.17-.08c-5.09-2.51-9.46-6.23-13.5-10.16C668.14,1148.08,664.61,1143.68,664.18,1143.19Z"/><path class="cls-24" d="M674.51,1152.51c5.24,4.13,16.57,8.61,18.73,7.9,4.76-1.58,12.72-8.05,19.2-13.73,5.09-4.46,10.12-8.12,3.53-16.94a11.06,11.06,0,0,1,4.68,5.29,12.53,12.53,0,0,1,1,7.2c-.28,1.27-1.38,2.17-2.25,3s-1.82,1.7-2.78,2.49c-1.35,1.13-2.74,2.25-4.16,3.3-.63.47-1.26,1-1.88,1.44-1.3,1-2.58,2-3.88,3.06-1.53,1.21-3.12,2.35-4.7,3.5-1.13.82-2.28,1.62-3.42,2.43l-.22.14,0,0,0,0-.27.14c-.77.41-2.7,1.47-2.83,1.51a4.06,4.06,0,0,1-1.91.32,5.53,5.53,0,0,1-1.47-.44c-3-1.22-6-2.36-8.9-3.77l-.17-.08c-5.09-2.51-9.46-6.23-13.5-10.16-1.1-1.07-4.63-5.47-5.06-6a6.84,6.84,0,0,1,.12-.79A64.63,64.63,0,0,0,674.51,1152.51Z"/></g></g></svg>