<svg id="Layer_1" data-name="Layer 1" xmlns="http://www.w3.org/2000/svg" xmlns:xlink="http://www.w3.org/1999/xlink" viewBox="0 0 2160 2160"><defs><style>.cls-1,.cls-5{fill:none;}.cls-2{fill:#db1f59;}.cls-3{fill:#fff;}.cls-4{clip-path:url(#clip-path);}.cls-5{stroke:#ea3b71;stroke-miterlimit:10;stroke-width:0.5px;}</style><clipPath id="clip-path"><rect class="cls-1" x="4434.48" y="720" width="2160" height="1440"/></clipPath></defs><path class="cls-2" d="M1516,644c-223.72-223.71-576.55-239.58-818.59-47.61L503.1,402.08l-101,101L596.39,697.41c-192,242-176.1,594.87,47.61,818.59s576.55,239.58,818.59,47.61l194.31,194.31,101-101-194.31-194.31C1755.58,1220.55,1739.71,867.72,1516,644ZM739.71,1420.29c-170.77-170.77-186.36-438-46.78-626.34l673.12,673.12C1177.67,1606.65,910.48,1591.06,739.71,1420.29Zm727.36-54.24L794,692.93c188.38-139.58,455.57-124,626.34,46.78S1606.65,1177.67,1467.07,1366.05Z"/><path class="cls-3" d="M575.83,570.94a72.35,72.35,0,0,0-6.89-12.35,6.39,6.39,0,0,1-.38-.58,6.36,6.36,0,0,0-.37-.59l-.27-.39a3.51,3.51,0,0,1-.27-.4,81.41,81.41,0,0,1-4.72-7.72,12.63,12.63,0,0,1-1.48-5.95,8,8,0,0,1,2.65-5.65l0,0a7.65,7.65,0,0,1,7.74-2q4.62,1.15,9.87,6.41a31.37,31.37,0,0,1,6,8.66,44,44,0,0,1,3.57,11.08l14.52-4.84a52.08,52.08,0,0,0-2.76-9.6,51.19,51.19,0,0,0-4.48-8.83,44,44,0,0,0-5.91-7.4q-7.09-7.1-14.29-9.91a23.44,23.44,0,0,0-14-1.28A26.16,26.16,0,0,0,551.71,527l-.05,0q-6.63,6.65-7.44,13A21,21,0,0,0,546,551.94a79.45,79.45,0,0,0,7.7,12.49l.79,1.05a.93.93,0,0,0,.19.27,1.17,1.17,0,0,1,.19.27,62.41,62.41,0,0,1,4.46,6.88,11.57,11.57,0,0,1,1.5,5.68,7.51,7.51,0,0,1-2.46,5.22l0,0a8.45,8.45,0,0,1-8.45,2.27q-5-1.18-10.58-6.78a41,41,0,0,1-7.87-11,36.47,36.47,0,0,1-3.65-12.54L513,559.93a42.67,42.67,0,0,0,2.47,10.6,51.16,51.16,0,0,0,5.23,10.36,57.53,57.53,0,0,0,7.62,9.37A45.54,45.54,0,0,0,543,600.59a24,24,0,0,0,14.21,1.61A25,25,0,0,0,569.86,595l.08-.08q6.18-6.18,7.16-12.34A21.24,21.24,0,0,0,575.83,570.94Z"/><path class="cls-3" d="M640.55,579.87l-83.88,37.48L569,629.66l13.13-6.32,22.23,22.23L598,658.7,610.34,671l37.47-83.88ZM597,616.18l28-13.44-13.44,28Z"/><polygon class="cls-3" points="663.46 655.03 677.98 617.3 666 605.33 646.6 660.45 623.19 683.86 634.62 695.3 658.03 671.89 713.16 652.48 701.18 640.51 663.46 655.03"/><polygon class="cls-3" points="731.83 760 754.68 694 740.7 680.02 680.07 740.66 691 751.59 734.74 707.85 712.49 773.08 726.55 787.14 787.18 726.51 776.25 715.58 731.83 760"/><path class="cls-3" d="M830.92,774.54a36.35,36.35,0,0,0-23.25-23.24,27.32,27.32,0,0,0-15.62.06,34.22,34.22,0,0,0-14.51,9l-17.19,17.19a34.28,34.28,0,0,0-9,14.51,27.24,27.24,0,0,0-.06,15.62,36.35,36.35,0,0,0,23.24,23.25,27.27,27.27,0,0,0,15.63-.07,34.25,34.25,0,0,0,14.5-9l17.19-17.19a34.25,34.25,0,0,0,9-14.5A27.27,27.27,0,0,0,830.92,774.54ZM792.53,810.3a16.7,16.7,0,0,1-6.87,4.32,12.67,12.67,0,0,1-7.34.13,16.76,16.76,0,0,1-10.85-10.85,12.78,12.78,0,0,1,.12-7.35,16.81,16.81,0,0,1,4.32-6.86l17.78-17.78a16.81,16.81,0,0,1,6.86-4.32,12.78,12.78,0,0,1,7.35-.12,16.76,16.76,0,0,1,10.85,10.85,12.67,12.67,0,0,1-.13,7.34,16.7,16.7,0,0,1-4.32,6.87Z"/><polygon class="cls-3" points="859.29 820.65 875.82 837.18 826.16 886.83 837.59 898.27 887.25 848.61 903.78 865.14 914.79 854.12 870.31 809.63 859.29 820.65"/><path class="cls-3" d="M950.18,893.8a36.43,36.43,0,0,0-23.24-23.24,27.36,27.36,0,0,0-15.63.06,34.22,34.22,0,0,0-14.5,9l-17.19,17.19a34.22,34.22,0,0,0-9,14.5,27.36,27.36,0,0,0-.06,15.63,36.43,36.43,0,0,0,23.24,23.24,27.36,27.36,0,0,0,15.63-.06,34.22,34.22,0,0,0,14.5-9l17.19-17.19a34.22,34.22,0,0,0,9-14.5A27.36,27.36,0,0,0,950.18,893.8Zm-38.39,35.77a16.71,16.71,0,0,1-6.87,4.31,12.67,12.67,0,0,1-7.34.13,16.76,16.76,0,0,1-10.85-10.85,12.67,12.67,0,0,1,.13-7.34,16.64,16.64,0,0,1,4.32-6.87L909,891.17a16.71,16.71,0,0,1,6.87-4.31,12.67,12.67,0,0,1,7.34-.13A16.76,16.76,0,0,1,934,897.58a12.75,12.75,0,0,1-.12,7.34,16.78,16.78,0,0,1-4.32,6.87Z"/><path class="cls-3" d="M1028.4,972.82q-2.82-7.91-10.41-15.5l-8.64-8.64-5.67-5.68-5.76-5.76-60.68,60.68,5.76,5.76,5.68,5.67,8.59,8.6q7.82,7.8,15.9,10.47a26,26,0,0,0,15.67.48,33,33,0,0,0,14.13-8.74l17.19-17.19q6.89-6.88,9-14.57A25.48,25.48,0,0,0,1028.4,972.82Zm-37.62,35.82q-5,5-10.76,4.59t-11.44-6l-8.89-8.89,38.64-38.64,8.89,8.89q5.64,5.64,6,11.44t-4.59,10.76Z"/><polygon class="cls-3" points="1057.3 996.63 1053.17 992.49 992.49 1053.17 996.62 1057.3 1003.93 1064.6 1033.14 1093.81 1044.15 1082.8 1014.94 1053.59 1028.55 1039.98 1053.17 1064.6 1064.18 1053.59 1039.56 1028.96 1053.59 1014.94 1082.8 1044.15 1093.81 1033.14 1064.6 1003.93 1057.3 996.63"/><path class="cls-3" d="M1136.25,1080.21a29.34,29.34,0,0,0-7.68-12.31l-12.89-12.9-6.22-6.21-5.22-5.22-60.67,60.68,11.43,11.43,23.54-23.54,12.89,12.9a29.76,29.76,0,0,0,12.29,7.7,23.15,23.15,0,0,0,13.19.21,30,30,0,0,0,19.51-19.51A23.28,23.28,0,0,0,1136.25,1080.21Zm-23.87,16.56a9,9,0,0,1-5.09.21,9.64,9.64,0,0,1-4.55-2.67l-13.18-13.18,15.1-15.11,13.19,13.19a9.86,9.86,0,0,1,2.71,4.59,8.88,8.88,0,0,1-.25,5.09,12.56,12.56,0,0,1-3.13,4.84A11.9,11.9,0,0,1,1112.38,1096.77Z"/><polygon class="cls-3" points="1168.05 1107.37 1156.62 1095.94 1095.94 1156.62 1101.03 1161.71 1107.37 1168.05 1136.59 1197.26 1147.6 1186.24 1118.39 1157.03 1168.05 1107.37"/><path class="cls-3" d="M1223.8,1163.12l-83.88,37.48,12.31,12.31,13.13-6.32,22.23,22.23-6.31,13.13,12.31,12.31,37.47-83.87Zm-43.56,36.32,28-13.45-13.44,28Z"/><polygon class="cls-3" points="1240.74 1202.1 1257.27 1218.63 1207.61 1268.28 1219.04 1279.72 1268.7 1230.06 1285.22 1246.58 1296.24 1235.57 1251.76 1191.08 1240.74 1202.1"/><polygon class="cls-3" points="1307.09 1246.42 1302.92 1242.24 1242.24 1302.92 1253.68 1314.35 1277.76 1290.27 1301.58 1314.1 1312.6 1303.09 1288.77 1279.26 1303.34 1264.69 1331.75 1293.11 1342.77 1282.1 1314.35 1253.68 1307.09 1246.42"/><path class="cls-3" d="M1381.08,1324.7a36.35,36.35,0,0,0-23.25-23.24,27.32,27.32,0,0,0-15.62.06,34.19,34.19,0,0,0-14.5,9l-17.2,17.2a34.19,34.19,0,0,0-9,14.5,27.32,27.32,0,0,0-.06,15.62,36.35,36.35,0,0,0,23.24,23.25,27.27,27.27,0,0,0,15.63-.07,34.19,34.19,0,0,0,14.5-9l17.19-17.19a34.19,34.19,0,0,0,9-14.5A27.27,27.27,0,0,0,1381.08,1324.7Zm-38.39,35.76a16.7,16.7,0,0,1-6.87,4.32,12.67,12.67,0,0,1-7.34.13,16.76,16.76,0,0,1-10.85-10.85,12.78,12.78,0,0,1,.12-7.35,16.81,16.81,0,0,1,4.32-6.86l17.78-17.78a16.81,16.81,0,0,1,6.86-4.32,12.78,12.78,0,0,1,7.35-.12,16.76,16.76,0,0,1,10.85,10.85,12.67,12.67,0,0,1-.13,7.34,16.7,16.7,0,0,1-4.32,6.87Z"/><path class="cls-3" d="M1406.39,1413.73a21.52,21.52,0,0,0,12.27-.46,32.31,32.31,0,0,0,19.07-19.07,21.71,21.71,0,0,0,.48-12.25,23.9,23.9,0,0,0-6.56-11l-15.14-15.15-6.89-6.89-4.55-4.55L1344.36,1405l11.43,11.43,24.41-24.41,6.94,6.94-10.74,38.09,13.86,13.85,10.51-39.52A21.81,21.81,0,0,0,1406.39,1413.73Zm-.9-47,14.23,14.23a7.68,7.68,0,0,1,1.81,8.58,12.75,12.75,0,0,1-3,4.49,13.61,13.61,0,0,1-4.53,3,8.08,8.08,0,0,1-4.57.44,7.88,7.88,0,0,1-4-2.21L1391.22,1381Z"/><polygon class="cls-3" points="1446.47 1467.58 1475.8 1415.13 1460.74 1400.07 1400.07 1460.74 1410.45 1471.13 1452.74 1428.85 1428.4 1475.55 1438.5 1485.65 1486.01 1460.51 1442.92 1503.6 1453.31 1513.99 1513.99 1453.31 1498.92 1438.25 1446.47 1467.58"/><rect class="cls-3" x="1459.19" y="1493.71" width="85.81" height="16.76" transform="translate(-622.19 1502.09) rotate(-45)"/><polygon class="cls-3" points="1542 1570.18 1564.85 1504.18 1550.88 1490.2 1490.24 1550.83 1501.17 1561.77 1544.91 1518.03 1522.67 1583.26 1536.73 1597.32 1597.36 1536.69 1586.43 1525.75 1542 1570.18"/><path class="cls-3" d="M1606.08,1598.91l-11,11,9.18,9.18-1,1a17.45,17.45,0,0,1-7,4.47,12.16,12.16,0,0,1-7.26.12,15.52,15.52,0,0,1-6.68-4.13,17.42,17.42,0,0,1-4.34-6.67,12,12,0,0,1-.33-7,13.52,13.52,0,0,1,3.71-6.3l17.9-17.91a17.21,17.21,0,0,1,7-4.4,12.91,12.91,0,0,1,7.38-.21,15,15,0,0,1,6.7,4,16.13,16.13,0,0,1,3.3,4.76,13.65,13.65,0,0,1,1.25,5.5,11.36,11.36,0,0,1-1.25,5.39l12.35,12.35a32.68,32.68,0,0,0,5.32-13.63,29.45,29.45,0,0,0-1.33-14,32,32,0,0,0-7.79-12.25,32.84,32.84,0,0,0-14.41-8.79,27.4,27.4,0,0,0-15.69.21,35.22,35.22,0,0,0-14.63,9.16l-17.9,17.9a31.31,31.31,0,0,0-8.45,14,26.83,26.83,0,0,0,.35,15.34,35.18,35.18,0,0,0,9.06,14.35,32.82,32.82,0,0,0,14.42,8.79,27.39,27.39,0,0,0,15.71-.23,35.44,35.44,0,0,0,14.64-9.18l11.85-11.85Z"/><g class="cls-4"><line class="cls-5" x1="4708.98" y1="1595.61" x2="796.5" y2="2127.27"/><line class="cls-5" x1="4755.58" y1="1595.61" x2="1060.46" y2="2127.27"/><line class="cls-5" x1="4802.18" y1="1595.61" x2="1324.42" y2="2127.27"/><line class="cls-5" x1="4848.78" y1="1595.61" x2="1588.38" y2="2127.27"/><line class="cls-5" x1="4895.38" y1="1595.61" x2="1852.34" y2="2127.27"/><line class="cls-5" x1="4941.97" y1="1595.61" x2="2116.29" y2="2127.27"/><line class="cls-5" x1="796.5" y1="2127.27" x2="10299" y2="2127.27"/><line class="cls-5" x1="1341.51" y1="2053.21" x2="9753.99" y2="2053.21"/><line class="cls-5" x1="1774.35" y1="1994.39" x2="9321.15" y2="1994.39"/><line class="cls-5" x1="2126.42" y1="1946.55" x2="8969.08" y2="1946.55"/></g></svg>