<svg id="Layer_1" data-name="Layer 1" xmlns="http://www.w3.org/2000/svg" viewBox="0 0 2160 2160"><defs><style>.cls-1{fill:#db1f59;}</style></defs><path class="cls-1" d="M1582.08,693.24H1467.8l-3,5.26-51.22,88.71-2.89,5,2.89,5,54.26,94h114.28l29.83-51.65,5.2-9,22.12-38.3Zm-2.88,192.94H1470.68l-54.25-94,54.25-94H1579.2l54.25,94Z"/><polygon class="cls-1" points="1568.82 716.2 1481.05 716.2 1437.17 792.21 1481.05 868.21 1568.82 868.21 1612.7 792.21 1568.82 716.2"/><path class="cls-1" d="M1238.37,830.81l-51.22-88.71-3-5.26H1069.83l-57.15,99,22.12,38.3,5.2,9,29.83,51.65h114.28l54.26-94,2.89-5Zm-57.14,99H1072.71l-54.25-94,54.25-94h108.52l54.25,94Z"/><polygon class="cls-1" points="1170.86 759.81 1083.09 759.81 1039.21 835.81 1083.09 911.82 1170.86 911.82 1214.74 835.81 1170.86 759.81"/><path class="cls-1" d="M1151,355.25H1036.7l-57.15,99,33.74,58.43,5.08,8.8,18.33,31.75H1151l18.33-31.75,5.08-8.8,33.74-58.43Zm-2.88,193H1039.58l-54.25-94,54.25-94H1148.1l54.25,94Z"/><polygon class="cls-1" points="1137.72 378.22 1049.95 378.22 1006.07 454.23 1049.95 530.23 1137.72 530.23 1181.6 454.23 1137.72 378.22"/><path class="cls-1" d="M851,804.27l-54.26-94H682.41L652.58,762l-5.2,9-22.12,38.31,57.15,99H796.69l3-5.16L851,814.27l2.89-5Zm-57.14,99H685.29l-54.25-94,54.25-94H793.81l54.25,94Z"/><polygon class="cls-1" points="783.43 733.26 695.67 733.26 651.79 809.27 695.67 885.28 783.43 885.28 827.32 809.27 783.43 733.26"/><path class="cls-1" d="M1310.91,1195l-5.2-9-29.83-51.65H1161.6l-54.26,94-2.89,5,2.89,5,51.25,88.76,3,5.22h114.28l57.15-99ZM1273,1327.3H1164.48l-54.25-94,54.25-94H1273l54.25,94Z"/><polygon class="cls-1" points="1262.62 1157.32 1174.86 1157.32 1130.97 1233.32 1174.86 1309.33 1262.62 1309.33 1306.5 1233.32 1262.62 1157.32"/><path class="cls-1" d="M1720.34,1100.1H1606.06l-3,5.13h0l-51.3,88.84-2.89,5,2.89,5,51.3,88.84,3,5.13h114.28l57.15-99Zm-2.88,193H1608.94l-54.25-94,54.25-94h108.52l54.25,94Z"/><polygon class="cls-1" points="1707.08 1123.08 1619.32 1123.08 1575.43 1199.08 1619.32 1275.09 1707.08 1275.09 1750.96 1199.08 1707.08 1123.08"/><path class="cls-1" d="M597.64,1056.83,546.34,968h0l-3-5.13H429.1l-57.15,99,57.15,99H543.38l3-5.13,51.3-88.84,2.89-5Zm-57.14,99H432l-54.25-94,54.25-94H540.5l54.25,94Z"/><polygon class="cls-1" points="530.12 985.82 442.35 985.82 398.47 1061.83 442.35 1137.83 530.12 1137.83 574 1061.83 530.12 985.82"/><path class="cls-1" d="M1248.77,1550.07l-5.12-8.86-23.8-41.23H1105.56l-57.14,99,57.14,99h114.29l57.14-99ZM1217,1692.94H1108.45l-54.26-94,54.26-94H1217l54.26,94Z"/><polygon class="cls-1" points="1206.59 1522.96 1118.83 1522.96 1074.94 1598.96 1118.83 1674.97 1206.59 1674.97 1250.47 1598.96 1206.59 1522.96"/><path class="cls-1" d="M255.33,1188.82a40.13,40.13,0,0,1-3.53,3.1,40.83,40.83,0,0,1-5.64,3.7,849.94,849.94,0,0,0,57.08,200.12l9.09-4.78A840,840,0,0,1,255.33,1188.82Zm128.36,336a96.78,96.78,0,0,1-9.57,4.4q21.94,33.73,47.05,65.36l7.76-7Q404.93,1557.3,383.69,1524.84Zm783.13,381.87q-36.09,3.11-73,3.12-16.87,0-33.59-.66h0l-1.16,10q17.33.69,34.76.69,37.34,0,74.15-3.14Zm363.83-106.16-1.53-11.19a843,843,0,0,1-87.9,46,37.86,37.86,0,0,1-.36,11.38A855.94,855.94,0,0,0,1530.65,1800.55Zm266-264.7a853.82,853.82,0,0,1-80.34,101.26l7.63,7.08a858,858,0,0,0,81.53-102.77ZM1923,1240.25a840.77,840.77,0,0,1-26.37,95.1l6.87,11.28A845.72,845.72,0,0,0,1933,1241.7Zm28.71-196.06-10,.93q.18,8.34.17,16.71,0,41.78-4,82.57l10,1.45q4-41.65,4-84Q1951.84,1053,1951.66,1044.19Zm-216.15-552a36.6,36.6,0,0,1-10.55,1.86l-1.07,0h-.69A851.67,851.67,0,0,1,1777.73,561l8.84-5.58Q1762.63,522.69,1735.51,492.2Zm-307.7-220.94q-29.44-12.45-59.54-22.62l-2.94,9.75a842.37,842.37,0,0,1,95.34,39l5.17-8.91Q1447.07,279.41,1427.81,271.26ZM990.29,210l1.72,9.93a852,852,0,0,1,88.91-6l.62-10A866.16,866.16,0,0,0,990.29,210ZM594.84,363.68q-33.17,23.76-64.1,50.73l7.46,7.33q29.88-26,62.13-49.15ZM339.32,652.91q-19.77,36.45-36.05,75-7.84,18.54-14.77,37.33a42.44,42.44,0,0,1,9.66,3.26,843,843,0,0,1,50.08-110.31ZM244,942.81l10,1.06A842.42,842.42,0,0,1,273,848.69a41.61,41.61,0,0,1-9.75-2.83A848.31,848.31,0,0,0,244,942.81ZM436.46,510.36A853.44,853.44,0,0,0,368,603.91l9,5.26a853.36,853.36,0,0,1,66.9-91.48ZM890.66,228a851.51,851.51,0,0,0-130.79,43.28,860.12,860.12,0,0,0-79.36,38.46l5.43,8.81A842.14,842.14,0,0,1,892.4,238ZM1213.2,212l-.62,10.08a841.71,841.71,0,0,1,101,20.58l2.94-9.74A848.43,848.43,0,0,0,1213.2,212Zm366.74,142.59-5.26,9.05q31.88,22,61.59,46.81l7.28-7.51Q1612.82,377.26,1579.94,354.62Zm304.47,373.24a859.21,859.21,0,0,0-42.94-87.42L1832.7,646a844.75,844.75,0,0,1,56.71,122.17,42.09,42.09,0,0,1,9.72-3.1Q1892.22,746.33,1884.41,727.86Zm40,117.71a41.88,41.88,0,0,1-9.7,3q8.4,32.32,14.28,65.6a83.93,83.93,0,0,1,8.82-1.27l1.2-.09Q1933.07,878.88,1924.39,845.57ZM1873,1396.45a843,843,0,0,1-48.2,94.88l8.79,5.55a856.35,856.35,0,0,0,45.92-89.76Zm-193.63,278.22a851.7,851.7,0,0,1-75.13,63.94l10.13,5.42a864.15,864.15,0,0,0,72.64-62.27Zm-356.05,203.61a839.23,839.23,0,0,1-104.19,22.31l1.17,10a847.51,847.51,0,0,0,106.47-22.75Zm-490.19-9.44-3.59,9.54a845.66,845.66,0,0,0,99,25.59l1.17-10.09A838.63,838.63,0,0,1,833.14,1868.84ZM493.37,1660.06l-7.7,7,1.47,1.48a865.38,865.38,0,0,0,68.53,61.63c.22-.35.45-.69.69-1a70.64,70.64,0,0,1,5.65-7.24A857.67,857.67,0,0,1,493.37,1660.06ZM248.16,998.77l-10-1.06q-2.34,31.86-2.34,64.12,0,9.47.21,18.89l.61-.4a41.47,41.47,0,0,1,9.3-4.41q-.12-7-.12-14.08Q245.84,1030,248.16,998.77Z"/><path class="cls-1" d="M742.74,1833.68l-3.62,9.62a853.12,853.12,0,0,1-84.6-44.25q-9.75-5.8-19.32-11.87-18.72-11.87-36.82-24.69a16.57,16.57,0,0,1,1.85-3.48,14,14,0,0,1,4.82-4.58q15.9,11.27,32.34,21.8,13,8.31,26.24,16.16A841.49,841.49,0,0,0,742.74,1833.68Z"/><path class="cls-1" d="M406.26,637a9.2,9.2,0,0,1-4.3,2.7,6.24,6.24,0,0,1-4.28-1.06l-80.3-47.11,19.26-32.81a6.35,6.35,0,0,1,3.2-3,9.12,9.12,0,0,1,5.09.27l1.45-2.48L319,537.46l-1.46,2.48a9.13,9.13,0,0,1,2.71,4.3,6.32,6.32,0,0,1-1.07,4.28l-52.11,88.83a6,6,0,0,1-3.14,2.9,9.92,9.92,0,0,1-5.11-.23l-1.45,2.48,27.38,16.07,1.46-2.48a9.15,9.15,0,0,1-2.72-4.31,6.2,6.2,0,0,1,1-4.19l19.3-32.9,80.3,47.11a6.3,6.3,0,0,1,3,3.23,9.28,9.28,0,0,1-.26,5.06l2.48,1.46,19.39-33Z"/><path class="cls-1" d="M558.42,454.56a9.49,9.49,0,0,1-4.91,1.48,6.4,6.4,0,0,1-3.93-2.09l-58.72-57.69a6.46,6.46,0,0,1-2.16-3.89,9,9,0,0,1,1.45-4.88l-1.79-1.76-25,25.41,1.8,1.76a9.49,9.49,0,0,1,4.91-1.54,6.35,6.35,0,0,1,3.86,2.09l21,20.62-39.46,40.17-21-20.63a6.41,6.41,0,0,1-2.16-3.88,9,9,0,0,1,1.46-4.87l-1.8-1.77L407,468.5l1.8,1.76a9.81,9.81,0,0,1,4.88-1.5,6.25,6.25,0,0,1,3.9,2.06l58.77,57.74a6.47,6.47,0,0,1,2.17,4,8.52,8.52,0,0,1-1.45,4.81l1.79,1.77,25-25.41-1.79-1.77a9.5,9.5,0,0,1-4.92,1.48,6.4,6.4,0,0,1-3.93-2.1L468.52,487,508,446.87l24.76,24.32a6.5,6.5,0,0,1,2.17,4,8.45,8.45,0,0,1-1.45,4.82l1.8,1.77,25-25.41Z"/><path class="cls-1" d="M704.56,327.82l-2.14,1.32a8.89,8.89,0,0,1,.34,5.09,6.52,6.52,0,0,1-3,3.3l-54.45,33.54-12.88-20.91,32.32-19.91a6.53,6.53,0,0,1,4.39-1.19,9,9,0,0,1,4.37,2.56l2.07-1.28-15.24-24.73-2.06,1.27a9.51,9.51,0,0,1,.25,5.13,6.47,6.47,0,0,1-3,3.31l-32.32,19.9-11.6-18.84,52.08-32.07a6.58,6.58,0,0,1,4.36-1.23,8.87,8.87,0,0,1,4.4,2.59l2.07-1.27-15.62-25.35-2.06,1.27a8.91,8.91,0,0,1,.32,5.08,6.53,6.53,0,0,1-3.05,3.36l-77.5,47.74,1.32,2.14a9.8,9.8,0,0,1,5.1-.29,6.29,6.29,0,0,1,3.29,2.94l43.21,70.15a6.53,6.53,0,0,1,1.15,4.36,8.5,8.5,0,0,1-2.57,4.33l1.33,2.14,79.87-49.19a6.48,6.48,0,0,1,4.36-1.16,8.5,8.5,0,0,1,4.33,2.57l2.15-1.32Z"/><path class="cls-1" d="M988.32,154.88l-2.4.42a8.9,8.9,0,0,1-1.58,4.84,6.61,6.61,0,0,1-4.08,2l-89,15.46.43,2.48a9.71,9.71,0,0,1,4.84,1.62,6.22,6.22,0,0,1,2,3.95l14.1,81.18a6.49,6.49,0,0,1-.55,4.47,8.45,8.45,0,0,1-4,3.07l.43,2.48,35.1-6.1-.43-2.48a9.43,9.43,0,0,1-4.86-1.66,6.46,6.46,0,0,1-2-4l-5.74-33.07L968,223a6.52,6.52,0,0,1,4.52.52,9.2,9.2,0,0,1,3.11,4l2.39-.42-5-28.62-2.39.41a9.61,9.61,0,0,1-1.63,4.85,6.39,6.39,0,0,1-4,2l-37.4,6.5-3.79-21.8,59.56-10.35a6.49,6.49,0,0,1,4.51.52,9.14,9.14,0,0,1,3.12,4l2.39-.42Z"/><path class="cls-1" d="M1173.59,159.26l-.16,2.52a9.48,9.48,0,0,1,4.39,2.7,6.5,6.5,0,0,1,1,4.3l-3,48.39q-.51,8.43-2.23,12.83a15.08,15.08,0,0,1-5.49,7.05q-7.71,5.38-21.63,4.52t-20.92-7.15a15.13,15.13,0,0,1-4.7-7.68c-.81-3.05-1-7.39-.69-13l3-48.39a6.43,6.43,0,0,1,1.5-4.18,8.81,8.81,0,0,1,4.65-2.1l.16-2.52-35.55-2.2-.16,2.52a9.69,9.69,0,0,1,4.34,2.7,6.27,6.27,0,0,1,1,4.3l-3.3,53.23q-.75,12.12,2,20.4,3,9,12.18,14.36,12.78,7.38,34.24,8.7,32.05,2,44.47-10.86,7.71-8.09,8.84-26.31l3.29-53.23a6.46,6.46,0,0,1,1.52-4.19,8.93,8.93,0,0,1,4.64-2.1l.15-2.51Z"/><path class="cls-1" d="M1404.38,203.25a9,9,0,0,1-3.58,3.62,6.54,6.54,0,0,1-4.54-.06l-80-24.18a6.43,6.43,0,0,1-3.8-2.52,8.66,8.66,0,0,1-.91-4.92l-2.32-.7L1300.63,203l2.32.71a9.13,9.13,0,0,1,3.58-3.59,6.43,6.43,0,0,1,4.55,0l28.41,8.59-21.22,70.17a6.43,6.43,0,0,1-2.5,3.75,8.48,8.48,0,0,1-4.94.95l-.73,2.41,34.1,10.31.73-2.41a9.41,9.41,0,0,1-3.59-3.66,6.39,6.39,0,0,1,0-4.45l21.19-70.09,28.41,8.59a6.55,6.55,0,0,1,3.81,2.49,9.11,9.11,0,0,1,1,5l2.32.71,8.62-28.5Z"/><path class="cls-1" d="M1568.14,289.73l-1.26,2.18a9.5,9.5,0,0,1,2.71,4.38,6.41,6.41,0,0,1-1.08,4.26l-24.35,41.93q-4.25,7.31-7.75,10.47a15,15,0,0,1-8.06,3.85q-9.31,1.35-21.37-5.65t-15.49-15.76a15.14,15.14,0,0,1-.77-9q1-4.64,5.22-11.94l24.35-41.93a6.52,6.52,0,0,1,3.22-3.07,8.86,8.86,0,0,1,5.1.21l1.27-2.18-30.8-17.89-1.27,2.18a9.79,9.79,0,0,1,2.67,4.36,6.29,6.29,0,0,1-1,4.29l-26.79,46.12q-6.11,10.5-7.37,19.13-1.39,9.38,4.46,18.29,8.13,12.33,26.72,23.12,27.78,16.13,44.63,10.21,10.5-3.78,19.68-19.57l26.79-46.12a6.39,6.39,0,0,1,3.23-3.06,8.9,8.9,0,0,1,5.09.2l1.27-2.18Z"/><path class="cls-1" d="M1751,445.77A34,34,0,0,0,1745.6,434q-3.93-5.62-13.17-14.58l-47.42-46-1.75,1.81a9.71,9.71,0,0,1,1.54,4.88,6.21,6.21,0,0,1-2,3.91l-57.33,59.17a6.52,6.52,0,0,1-3.94,2.19,8.51,8.51,0,0,1-4.83-1.42l-1.75,1.81,25.58,24.79,1.75-1.81a9.45,9.45,0,0,1-1.51-4.9,6.37,6.37,0,0,1,2.06-3.94l22.36-23.07,17.33,16.79-5.6,34.69c-.49,3.27-1.2,5.38-2.11,6.33q-1.93,2-6.18-.36l-1.75,1.8,30.43,29.49,1.75-1.81a14.83,14.83,0,0,1-2.73-7.33q-.39-4.07,1-13l4.79-32.35q12.86,8.21,22.45,7.92t18.12-9.06Q1753.84,458.45,1751,445.77Zm-26.28,7.47q-5,5.17-10.7,3-4.1-1.45-10-7.22l-26.1-25.29,15.9-16.4,26.1,25.28q7.17,7,8.23,11.48C1728.78,447.15,1727.65,450.18,1724.69,453.24Z"/><path class="cls-1" d="M1890.6,616.28a9,9,0,0,1-5.07.38,6.57,6.57,0,0,1-3.4-3l-48.56-77-2.13,1.34a9.83,9.83,0,0,1,.35,5.1,6.3,6.3,0,0,1-2.91,3.32l-69.68,44a6.5,6.5,0,0,1-4.35,1.2,8.44,8.44,0,0,1-4.35-2.52l-2.13,1.35,50.05,79.34a6.47,6.47,0,0,1,1.2,4.35,8.48,8.48,0,0,1-2.52,4.35l1.34,2.13,25.18-15.88-1.34-2.13a8.81,8.81,0,0,1-5.09.39,6.46,6.46,0,0,1-3.33-3l-34.12-54.09,20.77-13.1,20.25,32.1a6.52,6.52,0,0,1,1.24,4.38,9,9,0,0,1-2.51,4.4l1.3,2,24.57-15.5-1.3-2a9.5,9.5,0,0,1-5.12.31,6.47,6.47,0,0,1-3.35-2.94l-20.25-32.11,18.72-11.8,32.63,51.73a6.68,6.68,0,0,1,1.28,4.35,8.82,8.82,0,0,1-2.55,4.42l1.3,2.06,25.18-15.89Z"/><path class="cls-1" d="M311.56,959.64a8.61,8.61,0,0,1-2.63,4,5.72,5.72,0,0,1-4,.76L207.71,954a5.9,5.9,0,0,1-3.83-1.6,8.55,8.55,0,0,1-1.74-4.44l-2.69-.29-3.81,35.83,2.69.29a8.16,8.16,0,0,1,2.59-3.94,5.94,5.94,0,0,1,4.12-.79l97.23,10.34a6,6,0,0,1,3.79,1.59,8,8,0,0,1,1.69,4.44l2.69.28,3.82-35.83Z"/><path class="cls-1" d="M291.43,1147.73a72.8,72.8,0,0,0,.59-18.26q-1.54-17.87-10-29.36-9.31-12.61-24.83-11.27a27.31,27.31,0,0,0-12.46,4.13,23.48,23.48,0,0,0-8.46,9.22,33.51,33.51,0,0,0-3.11,10.2,114.09,114.09,0,0,0-.77,16.54l0,13.33q0,10.6-1,14.77-1.5,6.24-6.64,6.69-6.41.55-10-8A50.55,50.55,0,0,1,211,1140a80.33,80.33,0,0,1,1-20.72q1.84-10.59,5.19-15.13a4.83,4.83,0,0,1,3.56-2l.67-.06.66-2.18-23.92-7.69-.67,2.18a4,4,0,0,1,2.3,2.94,6,6,0,0,1-.4,2.33,99.13,99.13,0,0,0-5.45,42q1.83,21.17,10.9,32.85,9.47,12.25,23.87,11a25.91,25.91,0,0,0,21.26-14.4q4.6-9.57,4.45-27.13l-.14-13.4q-.08-12.64,1.27-17.17t5.48-4.89q6.24-.54,10.31,8.28a42.82,42.82,0,0,1,3.53,14.3,66.41,66.41,0,0,1-1.15,19.2q-2,9.59-5.85,14.77a5.65,5.65,0,0,1-4.23,2.14l-.92,2.12,23,9.48.92-2.12c-1.36-1.3-2.08-2.4-2.16-3.29a14.52,14.52,0,0,1,1.19-4.95A120,120,0,0,0,291.43,1147.73Z"/><path class="cls-1" d="M409.68,1460.09q-1-12.28-10.86-31l-30-57-2.4,1.26a8.66,8.66,0,0,1,0,4.77,5.89,5.89,0,0,1-3,2.9L277,1426.47a5.87,5.87,0,0,1-4.07.8,8.71,8.71,0,0,1-3.91-2.72l-2.4,1.26,30,57q7.44,14.16,14.76,22a46,46,0,0,0,16.74,11.56q22.39,9,48.82-4.92,15.06-7.92,23.41-19.29A46.34,46.34,0,0,0,409.68,1460.09Zm-23.56,7.53Q381.46,1480,365,1488.68q-22.77,12-38.23,1.64-7.22-4.82-14.27-18.24l-14.74-28,68.5-36,14.74,28q5.36,10.2,6.53,17.42A27.29,27.29,0,0,1,386.12,1467.62Z"/><path class="cls-1" d="M530.07,1632.91a8.38,8.38,0,0,1-4.63,1.18,6.2,6.2,0,0,1-3.64-2.24l-57.49-63.42-1.75,1.59a9.16,9.16,0,0,1,1.14,4.67,5.83,5.83,0,0,1-2.15,3.55l-57.4,52a6,6,0,0,1-3.83,1.82,8,8,0,0,1-4.44-1.62l-1.75,1.59,59.25,65.36a6.09,6.09,0,0,1,1.82,3.83,7.93,7.93,0,0,1-1.63,4.44l1.59,1.75,20.75-18.8-1.59-1.75a8.38,8.38,0,0,1-4.66,1.19,6.1,6.1,0,0,1-3.56-2.2l-40.39-44.55,17.11-15.51,24,26.44a6.15,6.15,0,0,1,1.86,3.86,8.55,8.55,0,0,1-1.61,4.48l1.53,1.69,20.24-18.35-1.53-1.69a9,9,0,0,1-4.69,1.12,6,6,0,0,1-3.58-2.18l-24-26.45,15.42-14,38.63,42.61a6.25,6.25,0,0,1,1.89,3.82,8.34,8.34,0,0,1-1.64,4.51l1.54,1.7,20.74-18.81Z"/><path class="cls-1" d="M677.35,1768.35a6.17,6.17,0,0,1-3.47-.62c-.79-.54-2-2.65-3.76-6.35a93.21,93.21,0,0,0-11.66-19.3,73.89,73.89,0,0,0-15.55-13.77q-25.86-17.61-49.61-9.64a47.51,47.51,0,0,0-24.55,18.89,48.76,48.76,0,0,0-8.28,21.48,46.29,46.29,0,0,0,1.95,20.57q5.85,17.4,25,30.45a72.29,72.29,0,0,0,18.39,9.35,95.49,95.49,0,0,0,22.2,3.77c4.07.24,6.49.63,7.29,1.17a6.39,6.39,0,0,1,1.84,3l2.42-.09-.05-25.31-2.35.14c-.68,1.3-1.06,2-1.12,2.1q-2,2.93-12.36,1.61a52.82,52.82,0,0,1-23.16-8.52q-12.66-8.61-16.46-20.91-4.3-13.95,3.77-25.81t22.59-12.88q12.81-1.07,25.53,7.6a51.8,51.8,0,0,1,15.24,16.39q6.49,10.74,4.17,14.15a9.48,9.48,0,0,1-.68.86,6.34,6.34,0,0,0-.85,1l.78,2.16,23.48-9.08Z"/><path class="cls-1" d="M853.47,1827.69a8.43,8.43,0,0,1-3.59,3.17,6.16,6.16,0,0,1-4.25-.34l-80.12-30.15-.83,2.22a9.11,9.11,0,0,1,3.15,3.62,5.86,5.86,0,0,1-.29,4.14l-27.29,72.52a6,6,0,0,1-2.58,3.36,8,8,0,0,1-4.69.59l-.83,2.21,82.56,31.08a6,6,0,0,1,3.37,2.57,8,8,0,0,1,.59,4.7l2.21.83,9.86-26.2-2.21-.84a8.35,8.35,0,0,1-3.6,3.19,6.14,6.14,0,0,1-4.17-.32l-56.28-21.19,8.13-21.61L806,1873.81a6.17,6.17,0,0,1,3.41,2.58,8.6,8.6,0,0,1,.62,4.73l2.13.8,9.63-25.57-2.14-.81a8.87,8.87,0,0,1-3.67,3.14,6,6,0,0,1-4.17-.3l-33.41-12.57,7.33-19.48,53.83,20.26a6.26,6.26,0,0,1,3.43,2.53,8.49,8.49,0,0,1,.6,4.77l2.14.8,9.86-26.2Z"/><path class="cls-1" d="M1024,1865.87l-.28,2.35a8.41,8.41,0,0,1,3.94,2.72,6,6,0,0,1,.71,4.13l-6,51.83-44.64-56c-1.59-2-2.3-3.68-2.14-5q.27-2.36,4.08-2.85l.27-2.35-36.14-4.21-.27,2.35a9.13,9.13,0,0,1,3.93,2.76,5.88,5.88,0,0,1,.72,4.08l-9,77a6.07,6.07,0,0,1-1.69,3.89,8,8,0,0,1-4.41,1.7l-.28,2.35,31.26,3.65.27-2.36a8.41,8.41,0,0,1-3.9-2.75,6,6,0,0,1-.74-4.16l6.22-53.36,44.23,55.06q3.2,4.08,4,5.45a3.92,3.92,0,0,1,.73,2.54c-.18,1.55-1.54,2.44-4.06,2.65l-.27,2.35,33.7,3.93.27-2.35a8.91,8.91,0,0,1-3.93-2.8,6,6,0,0,1-.71-4.12l9-76.89a6,6,0,0,1,1.65-3.85,8.39,8.39,0,0,1,4.46-1.73l.27-2.35Z"/><path class="cls-1" d="M1235.16,1852.08l-2.26.27a8.5,8.5,0,0,1-1.74,4.46,6.24,6.24,0,0,1-3.94,1.65l-78,9.11a6.06,6.06,0,0,1-4.22-.74,8.21,8.21,0,0,1-2.63-3.91l-2.27.26,3.25,27.81,2.26-.26a8.61,8.61,0,0,1,1.74-4.44,6.1,6.1,0,0,1,3.94-1.68l27.72-3.23,8,68.47a6,6,0,0,1-.74,4.17,8,8,0,0,1-3.91,2.67l.28,2.36,33.26-3.89-.27-2.35a8.82,8.82,0,0,1-4.47-1.82,6,6,0,0,1-1.64-3.84l-8-68.4,27.72-3.23a6.14,6.14,0,0,1,4.22.72,8.6,8.6,0,0,1,2.71,3.92l2.27-.27Z"/><path class="cls-1" d="M1451.88,1888.64a13.78,13.78,0,0,1-7.32-.73q-3.58-1.35-10.55-6.2l-25.34-17.42q12.24-7.47,16-15.69t-.16-19q-5.13-14.23-17-17.06a31.75,31.75,0,0,0-12.17-.33q-6.39,1-17.77,5.09l-58.41,21,.81,2.23a9.2,9.2,0,0,1,4.75.72,5.84,5.84,0,0,1,2.46,3.33l26.26,72.9a6,6,0,0,1,.22,4.23,8,8,0,0,1-3.19,3.49l.8,2.23,31.51-11.35-.8-2.23a9,9,0,0,1-4.76-.75,6,6,0,0,1-2.48-3.37l-10.24-28.43,21.35-7.68,27,19.07c2.56,1.77,4,3.23,4.47,4.4.59,1.64-.37,3.33-2.86,5.06l.8,2.23,37.48-13.5ZM1401,1848.07q-2.92,2.85-10.25,5.49l-32.15,11.58-7.28-20.21,32.15-11.58q8.84-3.18,13.1-2.2t6.3,6.63Q1405.2,1844.14,1401,1848.07Z"/><path class="cls-1" d="M1646.6,1773.45a10.08,10.08,0,0,1-5.56,1c-1.55-.27-4.17-1.39-7.87-3.34l-67.73-36.22a15.49,15.49,0,0,1-5.59-4.49q-2.17-3.23.64-7.37l-1.33-2-30.49,20.6,1.32,2c3.35-.69,5.66-.08,7,1.83a16.39,16.39,0,0,1,2.27,6.84l10.52,77.4a21.19,21.19,0,0,1,.13,6.76,9,9,0,0,1-2.88,4.28l1.33,2,28.84-19.48-1.32-2q-5.1,2.12-7.38-1.25a14.88,14.88,0,0,1-1.79-5.83l-1.71-11.3,36.11-24.38,9.76,5.1a14.4,14.4,0,0,1,5.38,4.19q2.36,3.49-1.68,7.34l1.33,2,32.07-21.66Zm-83.71,14.79-4.82-33.52,29.91,16.57Z"/><path class="cls-1" d="M1770.94,1624.13l-1.56,1.68a9,9,0,0,1,1.57,4.56,6.15,6.15,0,0,1-1.91,3.77L1733,1673l-50.53-46.9a6,6,0,0,1-2.14-3.6,8.46,8.46,0,0,1,1.24-4.62l-1.74-1.61L1657,1640.83l1.73,1.61a9.18,9.18,0,0,1,4.55-1.55,5.9,5.9,0,0,1,3.72,1.84l56.79,52.71a6,6,0,0,1,2.14,3.66,8,8,0,0,1-1.23,4.56l1.73,1.61,55.18-59.45a6.19,6.19,0,0,1,3.66-2.2,8.4,8.4,0,0,1,4.63,1.23l1.55-1.67Z"/><path class="cls-1" d="M1863.44,1527.05a9,9,0,0,1-4.22,2.33,6,6,0,0,1-4-1.14l-65.45-41.32a6.06,6.06,0,0,1-2.77-3.14,8.46,8.46,0,0,1,.37-4.77l-2-1.27-17.88,28.33,2,1.26a9.24,9.24,0,0,1,4.19-2.36,5.92,5.92,0,0,1,4,1.12l65.52,41.36a6.08,6.08,0,0,1,2.77,3.21,8,8,0,0,1-.37,4.71l2,1.26,17.88-28.32Z"/><path class="cls-1" d="M1929.66,1338l-.83,2.13a9.38,9.38,0,0,1,3.08,3.66,5.93,5.93,0,0,1-.36,4.22L1914,1392.82l-48-78.77-3.86-1.51-30.36,77.59a6.12,6.12,0,0,1-2.6,3.38,8.35,8.35,0,0,1-4.75.55l-.83,2.13,26.07,10.2.83-2.13a8.94,8.94,0,0,1-3.12-3.67,6,6,0,0,1,.39-4.2l16.72-42.73,47.4,77.8,4.72,1.85,30.95-79.08a6,6,0,0,1,2.63-3.37,8.24,8.24,0,0,1,4.69-.49l.83-2.12Z"/><path class="cls-1" d="M1970.64,1139.61l-.34,2.34a8.32,8.32,0,0,1,3.88,2.83,6.08,6.08,0,0,1,.58,4.14l-8.61,59.52-22.86-3.31,5.12-35.32a6,6,0,0,1,1.78-3.89,8.58,8.58,0,0,1,4.48-1.62l.33-2.26-27-3.91-.33,2.26a8.87,8.87,0,0,1,3.86,2.91,6.07,6.07,0,0,1,.59,4.14l-5.11,35.33-20.59-3,8.24-56.92a6.19,6.19,0,0,1,1.74-3.9,8.38,8.38,0,0,1,4.52-1.61l.33-2.26-27.71-4-.33,2.26a8.43,8.43,0,0,1,3.87,2.83,6.17,6.17,0,0,1,.58,4.23l-12.26,84.71,2.34.34a9.31,9.31,0,0,1,2.87-3.86,5.89,5.89,0,0,1,4.1-.6l76.68,11.1a6.12,6.12,0,0,1,3.85,1.79,8.06,8.06,0,0,1,1.57,4.46l2.35.34,12.63-87.31a6,6,0,0,1,1.8-3.84A8,8,0,0,1,1998,1146l.34-2.34Z"/><path class="cls-1" d="M1991.1,975.11q-1.21-13.14-4.51-21.71a39.88,39.88,0,0,0-9.46-14.54q-13.79-13.26-38-11-13.07,1.2-22.43,6.4a37.8,37.8,0,0,0-18.19,22q-3.37,10.35-1.78,27.61l5.11,55.33,2.36-.22a9.09,9.09,0,0,1,1.89-4.42A5.85,5.85,0,0,1,1910,1033l77.15-7.13a6,6,0,0,1,4.15.85,8,8,0,0,1,2.58,4l2.35-.21Zm-74.7,34.51-2.23-24.09a49.2,49.2,0,0,1,.47-14.65,23,23,0,0,1,4.89-10.14q7.18-8.57,21.76-9.91t23.21,5.76q8.28,6.79,9.81,23.38l2.22,24.09Z"/><path class="cls-1" d="M883.54,1350.36l-54.76-94.84H715.94l-54.75,94.84-1.67,2.89,1.67,2.89L715.94,1451H828.78l54.76-94.83,1.67-2.89Zm-56.42,97.72H717.61l-54.75-94.83,54.75-94.84H827.12l54.75,94.84Z"/><path class="cls-1" d="M766.84,1330v46.56a23.92,23.92,0,0,1,0-46.56Z"/><path class="cls-1" d="M796.29,1353.25a23.93,23.93,0,0,1-18.41,23.28V1330A23.92,23.92,0,0,1,796.29,1353.25Z"/><path class="cls-1" d="M816.16,1277.39H728.57l-43.79,75.86,43.79,75.85h87.59L860,1353.25Zm-38.28,110.27v21.84h-11v-21.84a34.85,34.85,0,0,1,0-68.82V1297h11v21.85a34.85,34.85,0,0,1,0,68.82Z"/><rect class="cls-1" x="849.22" y="809.15" width="10" height="6" transform="translate(-68 1546.17) rotate(-82.07)"/><path class="cls-1" d="M999.78,837.47l-11.94-1.66,1.38-9.9,11.94,1.66Zm-23.88-3.32L964,832.48l1.38-9.9,11.94,1.66ZM952,830.82l-11.94-1.66,1.38-9.91,11.94,1.67Zm-23.88-3.33-11.94-1.66,1.38-9.9,11.94,1.66Zm-23.88-3.32-11.94-1.67,1.38-9.9,11.94,1.66Zm-23.88-3.33-11.94-1.66,1.38-9.91,11.94,1.67Z"/><rect class="cls-1" x="1010.38" y="831.6" width="10" height="6" transform="translate(48.63 1725.08) rotate(-82.07)"/><rect class="cls-1" x="1034.12" y="544.93" width="6" height="10" transform="translate(-127.99 693.31) rotate(-34.95)"/><path class="cls-1" d="M814.9,711.35l-5.73-8.2,10.12-7.07,5.73,8.2Zm20.24-14.15L829.41,689l10.12-7.07,5.73,8.19Zm20.24-14.14-5.73-8.2,10.12-7.07,5.73,8.2Zm20.23-14.15-5.72-8.19L880,653.64l5.72,8.2Zm20.24-14.14-5.73-8.2,10.12-7.07,5.73,8.19Zm20.24-14.15-5.73-8.2,10.12-7.07,5.73,8.2Zm20.24-14.15-5.73-8.19,10.12-7.07,5.73,8.19Zm20.24-14.14-5.73-8.2L961,597.06l5.73,8.19Zm20.24-14.15L971.08,590l10.12-7.08,5.73,8.2ZM997.05,584l-5.73-8.2,10.12-7.07,5.73,8.19Zm20.24-14.15-5.73-8.2,10.12-7.07,5.72,8.2Z"/><rect class="cls-1" x="796.46" y="711.04" width="6" height="10" transform="translate(-266.02 587.21) rotate(-34.95)"/><rect class="cls-1" x="1145.82" y="546.47" width="10" height="6" transform="matrix(0.42, -0.91, 0.91, 0.42, 167.28, 1361.24)"/><path class="cls-1" d="M1452.38,695.24l-10.75-5,4.22-9.06,10.75,5Zm-21.5-10-10.75-5,4.22-9.07,10.75,5Zm-21.49-10-10.75-5,4.21-9.07,10.75,5Zm-21.5-10-10.75-5,4.22-9.07,10.75,5Zm-21.5-10-10.75-5,4.22-9.07,10.75,5Zm-21.49-10-10.75-5,4.22-9.06,10.74,5Zm-21.5-10-10.75-5,4.22-9.07,10.75,5Zm-21.5-10-10.74-5,4.21-9.07,10.75,5Zm-21.49-10-10.75-5,4.22-9.07,10.74,5Zm-21.5-10-10.75-5,4.22-9.06,10.75,5Zm-21.5-10-10.74-5,4.21-9.06,10.75,5Zm-21.49-10-10.75-5,4.22-9.07,10.74,5Zm-21.5-10-10.75-5,4.22-9.07,10.75,5Zm-21.5-10-10.74-5,4.21-9.07,10.75,5Z"/><rect class="cls-1" x="1462.96" y="693.97" width="10" height="6" transform="matrix(0.42, -0.91, 0.91, 0.42, 216.94, 1734.09)"/><rect class="cls-1" x="1575.08" y="889.03" width="10" height="6" transform="translate(-208.03 583.76) rotate(-19.67)"/><path class="cls-1" d="M1642.56,1081.71l-4.14-11.57,9.42-3.37,4.13,11.58Zm-8.28-23.14-4.13-11.58,9.41-3.36,4.14,11.57Zm-8.27-23.15-4.14-11.57,9.42-3.37,4.14,11.57Zm-8.27-23.15-4.14-11.57,9.42-3.37,4.13,11.58Zm-8.27-23.14-4.14-11.58,9.42-3.36,4.13,11.57ZM1601.19,966l-4.13-11.58,9.42-3.36,4.13,11.57Zm-8.27-23.15-4.13-11.57,9.41-3.37,4.14,11.58Zm-8.27-23.15-4.14-11.57,9.42-3.36,4.14,11.57Z"/><rect class="cls-1" x="1647.41" y="1091.43" width="10" height="6" transform="translate(-271.92 619.9) rotate(-19.67)"/><rect class="cls-1" x="1548.72" y="1194.53" width="6" height="10" transform="translate(-161.43 244.63) rotate(-8.57)"/><path class="cls-1" d="M1345.27,1235.67l-1.49-9.89,11.35-1.71,1.49,9.89Zm22.69-3.42-1.49-9.89,11.35-1.71,1.49,9.89Zm22.69-3.42-1.48-9.88,11.34-1.71,1.49,9.89Zm22.7-3.41-1.49-9.89,11.34-1.71,1.49,9.89ZM1436,1222l-1.49-9.89,11.35-1.7,1.48,9.88Zm22.69-3.41-1.49-9.89,11.35-1.71,1.49,9.89Zm22.69-3.42-1.49-9.89,11.35-1.71,1.49,9.89Zm22.69-3.42-1.48-9.89,11.34-1.7,1.49,9.88Zm22.7-3.41-1.49-9.89,11.34-1.71,1.49,9.89Z"/><rect class="cls-1" x="1327.21" y="1227.88" width="6" height="10" transform="translate(-168.87 211.99) rotate(-8.57)"/><rect class="cls-1" x="880.78" y="1348.25" width="6" height="10" transform="translate(-309.7 263.32) rotate(-14.45)"/><path class="cls-1" d="M899.53,1354.35l-2.49-9.68,11.6-3,2.5,9.68Zm23.21-6-2.5-9.68,11.6-3,2.5,9.68Zm23.2-6-2.49-9.68,11.6-3,2.49,9.68Zm23.21-6-2.5-9.68,11.6-3,2.5,9.68Zm23.2-6-2.49-9.68,11.6-3,2.49,9.69Zm23.21-6-2.5-9.69,11.6-3,2.5,9.69Zm23.2-6-2.5-9.69,11.61-3,2.49,9.69Zm23.2-6-2.49-9.69,11.6-3,2.5,9.69Zm23.21-6-2.5-9.69,11.61-3,2.49,9.69Zm23.2-6-2.49-9.69,11.6-3,2.5,9.69Z"/><rect class="cls-1" x="1130.24" y="1283.96" width="6" height="10" transform="translate(-285.68 323.39) rotate(-14.44)"/><rect class="cls-1" x="678.31" y="1301.51" width="10" height="6" transform="translate(-713.13 836.96) rotate(-43.84)"/><path class="cls-1" d="M669.6,1297.44l-8-8.36,7.21-6.93,8,8.37Zm-16.07-16.73-8-8.36,7.22-6.93,8,8.37ZM637.46,1264l-8-8.37,7.22-6.92,8,8.36Zm-16.07-16.73-8-8.37,7.21-6.92,8,8.36Zm-16.07-16.73-8-8.37,7.21-6.93,8,8.37Zm-16.07-16.73-8-8.37,7.21-6.93,8,8.37Zm-16.07-16.74-8-8.36,7.21-6.93,8,8.37Zm-16.06-16.73-8-8.37,7.21-6.92,8,8.36Z"/><rect class="cls-1" x="537.58" y="1154.96" width="10" height="6" transform="translate(-650.8 698.48) rotate(-43.84)"/><rect class="cls-1" x="560.87" y="997.4" width="6" height="10" transform="translate(-496.14 556.17) rotate(-37.81)"/><path class="cls-1" d="M578.35,997.49l-6.14-7.9,9-7,6.13,7.9Zm18.07-14-6.13-7.9,9-7,6.13,7.9Zm18.08-14-6.13-7.9,9-7,6.14,7.9Zm18.07-14-6.13-7.9,9-7,6.13,7.9Zm18.08-14-6.13-7.91,9-7,6.13,7.9Zm18.08-14-6.13-7.9,9-7,6.13,7.9Z"/><rect class="cls-1" x="683.11" y="902.54" width="6" height="10" transform="translate(-412.33 611.2) rotate(-37.81)"/><rect class="cls-1" x="1135.41" y="935.59" width="10" height="6" transform="translate(-103.57 142.35) rotate(-6.83)"/><path class="cls-1" d="M1157.45,1122.71l-1.36-11.29,9.93-1.19,1.36,11.29Zm-2.71-22.57-1.35-11.29,9.93-1.19,1.35,11.29Zm-2.7-22.57-1.36-11.28,9.93-1.19,1.36,11.28Zm-2.71-22.57-1.35-11.28,9.93-1.19,1.35,11.28Zm-2.7-22.57-1.36-11.28,9.93-1.19,1.36,11.28Zm-2.71-22.56-1.35-11.29,9.93-1.19,1.35,11.28Zm-2.7-22.57L1139.86,976l9.93-1.19,1.36,11.29Zm-2.71-22.57-1.35-11.29,9.93-1.19,1.35,11.29Z"/><rect class="cls-1" x="1159.12" y="1133.37" width="10" height="6" transform="translate(-126.92 146.56) rotate(-6.83)"/><rect class="cls-1" x="1206.84" y="882.2" width="10" height="6" transform="translate(-202.03 1388.28) rotate(-55.73)"/><path class="cls-1" d="M1570.24,1135.38l-10-6.79,5.63-8.26,10,6.79Zm-19.93-13.58-10-6.78,5.63-8.27,10,6.79Zm-19.93-13.57-10-6.79,5.62-8.26,10,6.78Zm-19.93-13.58-10-6.79,5.63-8.26,10,6.79Zm-19.93-13.57-10-6.79,5.63-8.27,10,6.79Zm-19.93-13.58-10-6.79,5.63-8.26,10,6.79Zm-19.93-13.57-10-6.79,5.63-8.27,10,6.79Zm-19.93-13.58-10-6.79,5.63-8.26,10,6.79Zm-19.93-13.58-10-6.78,5.63-8.27,10,6.79Zm-19.93-13.57-10-6.79,5.63-8.26,10,6.78Zm-19.93-13.58-10-6.78,5.63-8.27,10,6.79ZM1351,986.05l-10-6.79,5.63-8.26,10,6.78Zm-19.92-13.58-10-6.79,5.63-8.26,10,6.79Zm-19.93-13.57-10-6.79,5.63-8.27,10,6.79Zm-19.93-13.58-10-6.79,5.63-8.26,10,6.79Zm-19.93-13.57-10-6.79,5.63-8.27,10,6.79Zm-19.93-13.58-10-6.79,5.63-8.26,10,6.78Zm-19.93-13.58-10-6.78,5.63-8.27,10,6.79Z"/><rect class="cls-1" x="1580.5" y="1136.72" width="10" height="6" transform="translate(-249.11 1808.3) rotate(-55.73)"/><rect class="cls-1" x="1068.31" y="927.25" width="6" height="10" transform="translate(-316.63 1232.96) rotate(-53.25)"/><path class="cls-1" d="M841.47,1248.49l-8-6,7.25-9.71,8,6Zm14.5-19.42-8-6,7.25-9.71,8,6Zm14.51-19.43-8-6,7.25-9.72,8,6Zm14.5-19.43-8-6,7.25-9.72,8,6Zm14.5-19.43-8-6,7.25-9.71,8,6ZM914,1151.35l-8-6,7.25-9.71,8,6Zm14.5-19.42-8-6,7.26-9.71,8,6ZM943,1112.5l-8-6,7.25-9.72,8,6Zm14.5-19.43-8-6,7.25-9.72,8,6ZM972,1073.64l-8-6,7.26-9.71,8,6Zm14.5-19.43-8-6,7.25-9.71,8,6Zm14.5-19.42-8-6,7.25-9.71,8,6Zm14.51-19.43-8-6,7.25-9.72,8,6Zm14.5-19.43-8-6,7.25-9.72,8,6Zm14.5-19.43-8-6,7.25-9.71,8,6ZM1059,957.07l-8-6,7.25-9.71,8,6Z"/><rect class="cls-1" x="825.42" y="1252.62" width="6" height="10" transform="translate(-674.93 1169.13) rotate(-53.26)"/><rect class="cls-1" x="767.36" y="1242.89" width="10" height="6"/><path class="cls-1" d="M777.36,1230.62h-10v-12.26h10Zm0-24.53h-10v-12.27h10Zm0-24.53h-10v-12.27h10Zm0-24.53h-10v-12.27h10Zm0-24.54h-10v-12.26h10Zm0-24.53h-10v-12.27h10Zm0-24.53h-10v-12.27h10Zm0-24.53h-10v-12.27h10Zm0-24.54h-10V1022.1h10Zm0-24.53h-10V997.57h10Zm0-24.53h-10V973h10Zm0-24.53h-10V948.5h10Zm0-24.54h-10V924h10Z"/><rect class="cls-1" x="767.36" y="905.7" width="10" height="6"/><rect class="cls-1" x="1466.23" y="883.81" width="6" height="10" transform="translate(-17.64 1747.79) rotate(-61.19)"/><path class="cls-1" d="M1318.88,1172.44l-8.77-4.82,5.9-10.71,8.76,4.82Zm11.79-21.43-8.76-4.82,5.89-10.71,8.76,4.82Zm11.79-21.43-8.76-4.82,5.89-10.72,8.76,4.83Zm11.79-21.43-8.76-4.82,5.89-10.72,8.77,4.82Zm11.79-21.43-8.76-4.82,5.89-10.72,8.77,4.82Zm11.79-21.43-8.76-4.82,5.9-10.72,8.76,4.82Zm11.79-21.43-8.76-4.82,5.9-10.72,8.76,4.82Zm11.8-21.43-8.77-4.82,5.9-10.72,8.76,4.82Zm11.79-21.43-8.76-4.82,5.89-10.72,8.76,4.82ZM1425,979.57l-8.76-4.82,5.89-10.72,8.76,4.82Zm11.79-21.43-8.76-4.82,5.89-10.72,8.77,4.82Zm11.79-21.43-8.76-4.82,5.9-10.72,8.76,4.82Zm11.79-21.43-8.76-4.82,5.9-10.72,8.76,4.82Z"/><rect class="cls-1" x="1304.15" y="1178.37" width="6" height="10" transform="translate(-359.75 1758.23) rotate(-61.18)"/><line class="cls-1" x1="1218.74" y1="1333.29" x2="1167.99" y2="1499.96"/><rect class="cls-1" x="1270.44" y="1591.95" width="6" height="10" transform="translate(-742.44 1268.13) rotate(-42.17)"/><path class="cls-1" d="M1287.91,1590.59l-6.71-7.41,8.88-8,6.72,7.41Zm17.78-16.1-6.72-7.41,8.89-8,6.71,7.41Zm17.77-16.1-6.71-7.41,8.88-8,6.72,7.41Zm17.77-16.1-6.71-7.41,8.89-8.05,6.71,7.41Zm17.78-16.1-6.72-7.41,8.89-8,6.72,7.41Zm17.77-16.1-6.71-7.41,8.89-8,6.71,7.41Zm17.78-16.1-6.72-7.41,8.89-8,6.71,7.41Zm17.77-16.1-6.71-7.41,8.88-8,6.72,7.41Zm17.77-16.1-6.71-7.41,8.89-8.05,6.71,7.41Zm17.78-16.1-6.71-7.41,8.88-8,6.72,7.41Zm17.77-16.1-6.71-7.41,8.89-8,6.71,7.41Zm17.78-16.1-6.72-7.41,8.89-8,6.71,7.41Zm17.77-16.1-6.71-7.41,8.89-8,6.71,7.41Zm17.78-16.1-6.72-7.41,8.89-8.05,6.71,7.41Zm17.77-16.1-6.71-7.41,8.88-8,6.72,7.41Zm17.77-16.1-6.71-7.41,8.89-8,6.71,7.41Zm17.78-16.1-6.72-7.41,8.89-8,6.72,7.41Zm17.77-16.1-6.71-7.41,8.89-8,6.71,7.41Z"/><rect class="cls-1" x="1603.71" y="1290.07" width="6" height="10" transform="translate(-453.51 1414.29) rotate(-42.18)"/><rect class="cls-1" x="1046.69" y="1594.31" width="10" height="6" transform="translate(-860.74 1590.48) rotate(-56.43)"/><path class="cls-1" d="M1036.07,1592.94l-10.36-6.88,5.52-8.33,10.37,6.88Zm-20.72-13.75-10.36-6.87,5.52-8.34,10.36,6.88Zm-20.72-13.75-10.37-6.87,5.53-8.33,10.36,6.87Zm-20.73-13.75-10.36-6.87,5.53-8.33,10.36,6.87ZM953.18,1538l-10.36-6.88,5.53-8.33,10.36,6.87Zm-20.72-13.75-10.36-6.88,5.53-8.33,10.36,6.88Zm-20.72-13.75-10.36-6.87,5.53-8.34,10.36,6.88ZM891,1496.7l-10.36-6.87,5.53-8.33,10.36,6.87ZM870.3,1483l-10.36-6.87,5.53-8.33,10.36,6.87Zm-20.72-13.74-10.36-6.88,5.53-8.33,10.36,6.87Z"/><rect class="cls-1" x="824.12" y="1446.63" width="10" height="6" transform="translate(-837.2 1339) rotate(-56.43)"/><rect class="cls-1" x="1130.33" y="734.29" width="10" height="6" transform="matrix(0.96, -0.27, 0.27, 0.96, -157.05, 334.4)"/><path class="cls-1" d="M1126.33,723.73l-3.38-12,9.63-2.7,3.37,12Zm-6.76-24.06-3.38-12,9.63-2.7,3.38,12Zm-6.75-24-3.38-12,9.62-2.71,3.38,12Zm-6.76-24.06-3.38-12,9.63-2.7,3.38,12Zm-6.76-24.06-3.37-12,9.62-2.71,3.38,12Zm-6.75-24-3.38-12,9.63-2.7,3.37,12Zm-6.76-24.06-3.38-12,9.63-2.7,3.38,12Z"/><rect class="cls-1" x="1078.04" y="548.1" width="10" height="6" transform="translate(-108.65 313.3) rotate(-15.68)"/><rect class="cls-1" x="1237.28" y="829.32" width="6" height="10" transform="translate(-160.05 311.4) rotate(-13.45)"/><path class="cls-1" d="M1255.52,835.81l-2.33-9.72,11.16-2.67,2.33,9.73Zm22.32-5.33-2.33-9.73,11.16-2.66,2.33,9.72Zm22.32-5.34-2.33-9.72,11.16-2.67,2.33,9.73Zm22.32-5.33-2.33-9.73,11.16-2.67,2.33,9.73Zm22.31-5.34-2.32-9.72,11.16-2.67,2.32,9.72Zm22.32-5.33-2.32-9.73,11.16-2.67,2.32,9.73Zm22.32-5.34-2.32-9.72,11.16-2.67,2.32,9.72Z"/><rect class="cls-1" x="1410.51" y="787.91" width="6" height="10" transform="translate(-145.67 350.56) rotate(-13.45)"/><circle class="cls-1" cx="279.85" cy="806.78" r="22.7"/><circle class="cls-1" cx="1907.07" cy="806.78" r="22.7"/></svg>